<svg width="375" height="812" viewBox="0 0 375 812" fill="none" xmlns="http://www.w3.org/2000/svg">
<g clip-path="url(#clip0_181_72)">
<rect width="375" height="812" fill="#FF0000"/>
<g clip-path="url(#clip1_181_72)">
<path d="M-6.92621 307.037L63.2824 232.798L99.637 267.179L29.4283 341.418L-6.92621 307.037ZM-91.5616 578.586L-21.3529 504.347L15.0016 538.728L-55.2071 612.967L-91.5616 578.586ZM53.8565 716.11L124.065 641.872L160.42 676.253L90.211 750.491L53.8565 716.11ZM-36.4047 665.908L33.6284 591.855L69.9829 626.236L-0.0501934 700.289L-36.4047 665.908ZM213.284 209.163L162.762 211.099L163.829 272.125C132.955 280.964 104.905 298.034 82.7099 321.489C14.9761 393.111 16.9395 505.402 87.0855 571.74C157.232 638.079 269.458 633.778 337.191 562.157C404.925 490.535 402.962 378.244 332.816 311.905C300.917 281.773 258.588 265.031 214.278 265.022L213.284 209.163ZM245.68 440.454L210.576 477.573L118.926 390.898L154.03 353.779L245.68 440.454Z" fill="white" fill-opacity="0.4"/>
</g>
</g>
<defs>
<clipPath id="clip0_181_72">
<rect width="375" height="812" fill="white"/>
</clipPath>
<clipPath id="clip1_181_72">
<rect width="611.48" height="611.48" fill="white" transform="translate(-170 209.19) rotate(-8.19762)"/>
</clipPath>
</defs>
</svg>
