<svg width="375" height="812" viewBox="0 0 375 812" fill="none" xmlns="http://www.w3.org/2000/svg">
<g clip-path="url(#clip0_181_43)">
<rect width="375" height="812" fill="#FF0000"/>
<g clip-path="url(#clip1_181_43)">
<path d="M154.362 659.507C130.755 698.178 80.2677 710.391 41.5957 686.784C2.92374 663.178 -9.28918 612.69 14.3176 574.018C30.1363 548.104 58.0249 534.096 86.3405 534.759L198.933 350.313C210.737 330.977 235.981 324.87 255.317 336.674C274.653 348.477 280.759 373.721 268.956 393.057L156.363 577.503C169.894 602.385 170.181 633.593 154.362 659.507ZM245.911 588.26C252.628 626.245 246.063 666.737 224.384 702.251C177.168 779.599 76.201 804.024 -1.14844 756.807C-1.47558 756.607 -1.81408 756.399 -2.14098 756.196C-78.7323 708.709 -102.604 607.224 -55.257 530.545C-33.5732 495.427 -0.757241 471.337 35.8444 460.027L171.655 237.546C207.065 179.538 282.797 161.219 340.805 196.629C398.813 232.039 417.132 307.771 381.722 365.779L245.911 588.26ZM171.868 670.193C194.802 632.622 185.532 600.155 181.272 576.061L329.205 333.721C346.882 304.763 337.704 266.823 308.747 249.146C279.789 231.469 241.849 240.647 224.172 269.604L76.2384 511.944C52.6722 519.227 19.9799 525.81 -2.905 562.871C-32.4539 610.726 -17.5033 674.277 30.2808 703.903L30.9097 704.29C79.1725 733.751 142.406 718.455 171.868 670.193Z" fill="white" fill-opacity="0.4"/>
</g>
</g>
<defs>
<clipPath id="clip0_181_43">
<rect width="375" height="812" fill="white"/>
</clipPath>
<clipPath id="clip1_181_43">
<rect width="611.48" height="611.48" fill="white" transform="translate(-170 209.19) rotate(-8.19762)"/>
</clipPath>
</defs>
</svg>
