<svg width="375" height="812" viewBox="0 0 375 812" fill="none" xmlns="http://www.w3.org/2000/svg">
<g clip-path="url(#clip0_12_35)">
<rect width="375" height="812" fill="#FF0000"/>
<g clip-path="url(#clip1_12_35)">
<path d="M411.486 416.627L295.952 542.482L100.625 363.173C108.105 343.132 106.947 321.408 97.6439 303.275L154.964 181.958C158.603 174.256 155.553 165.514 148.155 162.425L121.373 151.24C113.975 148.152 105.032 151.894 101.393 159.596L50.1816 267.967C25.205 263.236 -2.44808 271.596 -21.9379 292.827C-50.9396 324.42 -50.716 371.825 -21.4385 398.702C-19.1655 400.788 -16.6046 402.362 -14.1287 404.081L-69.8809 522.08C-73.5198 529.782 -70.4697 538.525 -63.0718 541.613L-36.2899 552.798C-28.8919 555.886 -19.9493 552.144 -16.3104 544.442L45.3737 413.889C49.881 412.664 54.3005 410.976 58.6192 408.931L285.755 617.441C291.613 622.819 301.058 622.054 306.861 615.733L453.905 455.554C459.708 449.232 459.663 439.757 453.805 434.379L432.599 414.912C426.734 409.541 417.289 410.306 411.486 416.627ZM389.568 248.95C378.846 239.107 384.662 242.681 213.453 199.348C178.481 190.501 145.257 226.599 157.084 260.753C215.375 429.061 211.16 422.451 221.544 431.984L221.531 431.998C250.809 458.875 312.167 439.684 358.571 389.134C404.975 338.585 418.859 275.813 389.581 248.936L389.568 248.95ZM247.689 382.22L199.526 243.132L342.217 279.247L247.689 382.22ZM46.2024 551.809C11.23 542.962 -21.9931 579.06 -10.1664 613.213C48.124 781.521 43.9096 774.912 54.2939 784.444L54.2807 784.459C83.5582 811.335 144.916 792.144 191.321 741.595C237.725 691.046 251.608 628.273 222.33 601.397L222.317 601.411C211.595 591.568 217.412 595.142 46.2024 551.809ZM80.4386 734.68L32.2757 595.593L174.967 631.708L80.4386 734.68Z" fill="white" fill-opacity="0.4"/>
</g>
</g>
<defs>
<clipPath id="clip0_12_35">
<rect width="375" height="812" fill="white"/>
</clipPath>
<clipPath id="clip1_12_35">
<rect width="621.25" height="460.582" fill="white" transform="translate(-232 521.655) rotate(-47.4483)"/>
</clipPath>
</defs>
</svg>
