<svg width="375" height="812" viewBox="0 0 375 812" fill="none" xmlns="http://www.w3.org/2000/svg">
<g clip-path="url(#clip0_181_104)">
<rect width="375" height="812" fill="#FF0000"/>
<g clip-path="url(#clip1_181_104)">
<path d="M235.902 519.902C223.032 532.772 205.577 540.002 187.377 540.002C169.176 540.002 151.721 532.772 138.851 519.902C120.735 501.786 114.751 476.067 120.897 453.422L187.053 205.459L252.562 449.864C260.326 473.803 254.827 500.977 235.902 519.902ZM25.626 309.626C54.9029 280.349 90.3263 261.101 127.367 250.587L112.971 304.126C93.3995 312.699 74.1512 325.801 57.9761 341.976C23.657 376.295 4.37669 422.842 4.3767 471.377C4.3767 519.911 23.657 566.458 57.9762 600.777C93.7231 636.524 140.469 654.478 187.215 654.317L187.377 654.155C199.993 654.155 210.184 664.345 210.184 676.962C210.184 689.578 199.832 699.93 187.377 700.092C157.333 700.135 127.578 694.242 99.8194 682.75C72.061 671.258 46.847 654.394 25.626 633.127C-17.2729 590.228 -41.3733 532.045 -41.3733 471.377C-41.3733 410.708 -17.2729 352.525 25.626 309.626V309.626ZM349.127 309.626C393.771 354.269 416.092 412.823 416.092 471.377C415.93 483.831 405.74 494.022 393.124 494.022C390.128 494.025 387.161 493.437 384.392 492.292C381.624 491.147 379.108 489.467 376.99 487.349C374.871 485.23 373.192 482.715 372.047 479.946C370.901 477.178 370.314 474.211 370.317 471.215C370.366 447.205 365.66 423.423 356.471 401.242C347.282 379.06 333.791 358.917 316.777 341.976C300.602 325.801 281.354 312.699 261.135 303.803L246.739 250.263C284.427 261.101 319.689 280.187 349.127 309.626Z" fill="white" fill-opacity="0.4"/>
</g>
</g>
<defs>
<clipPath id="clip0_181_104">
<rect width="375" height="812" fill="white"/>
</clipPath>
<clipPath id="clip1_181_104">
<rect width="549" height="549" fill="white" transform="translate(-217 455.202) rotate(-45)"/>
</clipPath>
</defs>
</svg>
