<svg width="375" height="812" viewBox="0 0 375 812" fill="none" xmlns="http://www.w3.org/2000/svg">
<g clip-path="url(#clip0_181_164)">
<rect width="375" height="812" fill="#FF0000"/>
<g clip-path="url(#clip1_181_164)">
<path d="M464.65 448.864L437.891 485.928C414.31 518.59 313.729 486.5 213.463 414.11C113.197 341.721 51.082 256.351 74.6636 223.688L101.423 186.624C125.004 153.961 225.585 186.052 325.851 258.441C426.117 330.831 488.232 416.201 464.65 448.864ZM404.442 532.258L344.234 615.652C320.653 648.315 220.072 616.224 119.806 543.835C19.5395 471.445 -42.575 386.075 -18.9934 353.412L41.2146 270.018C60.8327 325.06 123.217 389.129 194.397 440.519C265.576 491.909 346.022 530.958 404.442 532.258ZM310.785 661.982L250.577 745.376C226.996 778.039 126.415 745.948 26.1488 673.559C-74.1175 601.169 -136.232 515.799 -112.65 483.136L-52.4424 399.742C-32.8242 454.784 29.5599 518.854 100.74 570.243C171.919 621.633 252.365 660.683 310.785 661.982Z" fill="white" fill-opacity="0.4"/>
</g>
</g>
<defs>
<clipPath id="clip0_181_164">
<rect width="375" height="812" fill="white"/>
</clipPath>
<clipPath id="clip1_181_164">
<rect width="448" height="512" fill="white" transform="translate(144.237 127.321) rotate(35.8282)"/>
</clipPath>
</defs>
</svg>
