<svg width="375" height="812" viewBox="0 0 375 812" fill="none" xmlns="http://www.w3.org/2000/svg">
<g clip-path="url(#clip0_181_133)">
<rect width="375" height="812" fill="#FF0000"/>
<path d="M8.97342 452.503L162.246 299.022L111.922 248.774L41.6749 319.127C40.8372 319.968 39.842 320.635 38.7461 321.09C37.6503 321.546 36.4753 321.781 35.2886 321.782C34.1018 321.782 32.9266 321.549 31.8301 321.095C30.7335 320.642 29.7372 319.976 28.8983 319.137L16.112 306.37C12.5761 302.839 12.5717 297.118 16.1023 293.593L86.3494 223.24L47.9791 184.916C33.8468 170.806 10.9605 170.823 -3.1504 184.955L-105.321 287.279C-119.42 301.411 -119.414 324.298 -105.282 338.409L8.97342 452.503ZM451.634 319.045C473 297.648 472.962 262.988 451.575 241.622L399.963 190.087C378.565 168.722 343.893 168.748 322.516 190.146L270.104 242.625L399.222 371.548L451.634 319.045ZM244.331 268.449L-93.921 607.165L-115.21 729.636C-118.081 746.153 -103.687 760.526 -87.1627 757.607L35.2879 736.041L373.449 397.36L244.331 268.449ZM457.289 593.607L418.919 555.295L348.672 625.648C345.141 629.184 339.42 629.188 335.895 625.658L323.109 612.891C319.584 609.36 319.58 603.638 323.099 600.114L393.346 529.761L342.999 479.49L189.727 632.971L304.028 747.088C318.16 761.199 341.047 761.182 355.158 747.049L457.328 644.737C471.439 630.604 471.421 607.718 457.289 593.607Z" fill="white" fill-opacity="0.4"/>
</g>
<defs>
<clipPath id="clip0_181_133">
<rect width="375" height="812" fill="white"/>
</clipPath>
</defs>
</svg>
