<svg width="375" height="812" viewBox="0 0 375 812" fill="none" xmlns="http://www.w3.org/2000/svg">
<g clip-path="url(#clip0_64_58)">
<rect width="375" height="812" fill="#FF0000"/>
<g clip-path="url(#clip1_64_58)">
<path d="M124.436 762.967C105.515 788.257 69.5795 793.433 44.2899 774.513L-80.3528 681.218C-105.696 662.305 -110.873 626.369 -91.8986 601.072L-40.5582 532.379L24.3681 580.944C32.7699 587.335 44.8273 585.598 51.0834 577.095C57.4748 568.694 55.7378 556.636 47.2348 550.38L-17.6679 501.812L24.2089 445.825L89.1234 494.391C97.5252 500.783 109.583 499.046 115.839 490.543C122.23 482.141 120.493 470.084 111.99 463.827L47.0756 415.261L88.9642 359.272L153.879 407.839C162.28 414.23 174.338 412.493 180.594 403.99C186.985 395.588 185.248 383.531 176.745 377.275L111.831 328.708L153.721 272.731L218.634 321.286C227.036 327.677 239.093 325.94 245.349 317.437C251.741 309.036 250.004 296.978 241.501 290.722L176.584 242.144L227.992 173.502C246.905 148.159 282.841 142.982 308.138 161.956L432.822 255.197C458.111 274.117 463.288 310.053 444.367 335.343L124.436 762.967Z" fill="white" fill-opacity="0.4"/>
</g>
</g>
<defs>
<clipPath id="clip0_64_58">
<rect width="375" height="812" fill="white"/>
</clipPath>
<clipPath id="clip1_64_58">
<rect width="611.48" height="611.48" fill="white" transform="translate(-170 209.19) rotate(-8.19762)"/>
</clipPath>
</defs>
</svg>
