<svg width="375" height="219" viewBox="0 0 375 219" fill="none" xmlns="http://www.w3.org/2000/svg">
<rect width="375" height="219" fill="#FF0000"/>
<g clip-path="url(#clip0_71_7)" filter="url(#filter0_b_71_7)">
<path d="M90.8 169.375H62.2V125.047C65.5182 123.703 68.0663 121.104 69.2493 117.908L90.6993 111.252C92.061 110.829 92.7939 109.465 92.3373 108.205L90.6846 103.642C90.228 102.382 88.7541 101.704 87.3924 102.126L68.2304 108.071C65.9862 104.46 61.8246 102 57 102C49.8207 102 44 107.387 44 114.031C44 114.547 44.0959 115.04 44.1641 115.54L23.3008 122.014C21.939 122.437 21.2061 123.801 21.6628 125.061L23.3154 129.624C23.772 130.884 25.2459 131.562 26.6076 131.14L49.6907 123.977C50.3521 124.393 51.0606 124.747 51.8016 125.047V176.594C51.8016 177.923 52.9651 179 54.4016 179H90.8016C92.2381 179 93.4016 177.923 93.4016 176.594V171.781C93.4 170.452 92.2365 169.375 90.8 169.375ZM108.997 147.719C108.997 145.285 109.214 146.406 95.1761 120.421C92.308 115.114 84.0952 115.104 81.2222 120.421C67.0652 146.628 67.4032 145.362 67.4032 147.719H67.4C67.4 154.363 76.7129 159.75 88.2 159.75C99.6871 159.75 109 154.363 109 147.719H108.997ZM76.5 145.313L88.2 123.656L99.9 145.313H76.5ZM32.7761 139.671C29.908 134.364 21.6952 134.354 18.8222 139.671C4.66525 165.878 5.00325 164.612 5.00325 166.969H5C5 173.613 14.3129 179 25.8 179C37.2871 179 46.6 173.613 46.6 166.969H46.5967C46.5967 164.535 46.8145 165.656 32.7761 139.671ZM14.1 164.563L25.8 142.906L37.5 164.563H14.1Z" fill="white" fill-opacity="0.4"/>
</g>
<path d="M185.5 34C180.444 34 175.438 34.9958 170.767 36.9306C166.096 38.8654 161.851 41.7013 158.276 45.2764C151.056 52.4965 147 62.2892 147 72.5C147 82.7108 151.056 92.5035 158.276 99.7236C161.851 103.299 166.096 106.135 170.767 108.069C175.438 110.004 180.444 111 185.5 111C195.711 111 205.503 106.944 212.724 99.7236C219.944 92.5035 224 82.7108 224 72.5C224 67.4441 223.004 62.4377 221.069 57.7667C219.135 53.0957 216.299 48.8514 212.724 45.2764C209.149 41.7013 204.904 38.8654 200.233 36.9306C195.562 34.9958 190.556 34 185.5 34ZM185.5 41.7C193.669 41.7 201.503 44.945 207.279 50.7211C213.055 56.4972 216.3 64.3313 216.3 72.5C216.3 81.74 212.45 89.825 205.905 95.6C200.515 90.595 193.2 87.9 185.5 87.9C177.8 87.9 170.87 90.595 165.095 95.6C158.55 89.825 154.7 81.74 154.7 72.5C154.7 64.3313 157.945 56.4972 163.721 50.7211C169.497 44.945 177.331 41.7 185.5 41.7ZM193.2 48.9765C191.737 49.015 190.351 49.9775 189.735 51.479L184.769 63.9145L184.383 64.8C181.65 65.3005 179.379 67.11 178.339 69.651C176.761 73.6165 178.686 78.0825 182.651 79.661C186.616 81.2395 191.082 79.3145 192.661 75.349C193.662 72.808 193.2 69.882 191.544 67.726L191.929 66.725L196.896 54.3665L196.934 54.251C197.704 52.2875 196.742 50.0545 194.778 49.246C194.278 49.0535 193.777 48.9765 193.2 48.9765ZM177.8 49.4C176.779 49.4 175.8 49.8056 175.078 50.5276C174.356 51.2497 173.95 52.2289 173.95 53.25C173.95 54.2711 174.356 55.2503 175.078 55.9724C175.8 56.6944 176.779 57.1 177.8 57.1C178.821 57.1 179.8 56.6944 180.522 55.9724C181.244 55.2503 181.65 54.2711 181.65 53.25C181.65 52.2289 181.244 51.2497 180.522 50.5276C179.8 49.8056 178.821 49.4 177.8 49.4ZM166.25 60.95C165.229 60.95 164.25 61.3556 163.528 62.0776C162.806 62.7997 162.4 63.7789 162.4 64.8C162.4 65.8211 162.806 66.8003 163.528 67.5224C164.25 68.2444 165.229 68.65 166.25 68.65C167.271 68.65 168.25 68.2444 168.972 67.5224C169.694 66.8003 170.1 65.8211 170.1 64.8C170.1 63.7789 169.694 62.7997 168.972 62.0776C168.25 61.3556 167.271 60.95 166.25 60.95ZM204.75 60.95C203.729 60.95 202.75 61.3556 202.028 62.0776C201.306 62.7997 200.9 63.7789 200.9 64.8C200.9 65.8211 201.306 66.8003 202.028 67.5224C202.75 68.2444 203.729 68.65 204.75 68.65C205.771 68.65 206.75 68.2444 207.472 67.5224C208.194 66.8003 208.6 65.8211 208.6 64.8C208.6 63.7789 208.194 62.7997 207.472 62.0776C206.75 61.3556 205.771 60.95 204.75 60.95Z" fill="white" fill-opacity="0.4"/>
<line x1="321" y1="32" x2="338.074" y2="32" stroke="black" stroke-opacity="0.1" stroke-width="4" stroke-linecap="round"/>
<path d="M359.25 184.5C359.25 193.198 352.198 200.25 343.5 200.25C334.802 200.25 327.75 193.198 327.75 184.5C327.75 178.671 330.919 173.586 335.625 170.862V129.375C335.625 125.026 339.151 121.5 343.5 121.5C347.849 121.5 351.375 125.026 351.375 129.375V170.862C356.081 173.586 359.25 178.671 359.25 184.5ZM367.125 163.667C372.025 169.22 375 176.512 375 184.5C375 201.898 360.898 216 343.5 216C343.426 216 343.35 216 343.276 215.999C325.975 215.879 311.912 201.637 312 184.336C312.041 176.412 315.008 169.182 319.875 163.667V113.625C319.875 100.577 330.452 90 343.5 90C356.548 90 367.125 100.577 367.125 113.625V163.667ZM363.187 184.5C363.187 176.049 358.421 171.656 355.312 168.134V113.625C355.312 107.112 350.013 101.812 343.5 101.812C336.987 101.812 331.687 107.112 331.687 113.625V168.134C328.554 171.685 323.856 176.034 323.813 184.396C323.758 195.194 332.565 204.112 343.358 204.187L343.5 204.188C354.356 204.188 363.187 195.356 363.187 184.5Z" fill="white" fill-opacity="0.4"/>
<path d="M285.062 148.75H269.062C268.787 148.75 268.562 148.975 268.562 149.25V152.25C268.562 152.525 268.787 152.75 269.062 152.75H285.062C285.337 152.75 285.562 152.525 285.562 152.25V149.25C285.562 148.975 285.337 148.75 285.062 148.75ZM276.687 157.25H269.062C268.787 157.25 268.562 157.475 268.562 157.75V160.75C268.562 161.025 268.787 161.25 269.062 161.25H276.687C276.962 161.25 277.187 161.025 277.187 160.75V157.75C277.187 157.475 276.962 157.25 276.687 157.25ZM255.831 143.156H253.125C252.737 143.156 252.425 143.469 252.425 143.856V159.356C252.425 159.581 252.531 159.788 252.712 159.919L262.019 166.706C262.331 166.931 262.769 166.869 262.994 166.556L264.6 164.362V164.356C264.825 164.044 264.756 163.606 264.444 163.381L256.525 157.656V143.856C256.531 143.469 256.212 143.156 255.831 143.156V143.156Z" fill="white" fill-opacity="0.4"/>
<path d="M276.3 165.119H272.688C272.338 165.119 272.006 165.3 271.819 165.6C271.025 166.856 270.1 168.019 269.038 169.081C267.206 170.912 265.075 172.35 262.706 173.35C260.25 174.387 257.644 174.912 254.956 174.912C252.263 174.912 249.656 174.387 247.206 173.35C244.838 172.35 242.706 170.912 240.875 169.081C239.044 167.25 237.606 165.119 236.606 162.75C235.569 160.3 235.044 157.694 235.044 155C235.044 152.306 235.569 149.706 236.606 147.25C237.606 144.881 239.044 142.75 240.875 140.919C242.706 139.087 244.838 137.65 247.206 136.65C249.656 135.612 252.269 135.087 254.956 135.087C257.65 135.087 260.256 135.612 262.706 136.65C265.075 137.65 267.206 139.087 269.038 140.919C270.1 141.981 271.025 143.144 271.819 144.4C272.006 144.7 272.338 144.881 272.688 144.881H276.3C276.731 144.881 277.006 144.431 276.813 144.05C272.738 135.944 264.475 130.675 255.25 130.569C241.744 130.4 230.525 141.456 230.5 154.95C230.475 168.469 241.431 179.437 254.95 179.437C264.294 179.437 272.694 174.15 276.813 165.95C277.006 165.569 276.725 165.119 276.3 165.119V165.119Z" fill="white" fill-opacity="0.4"/>
<line x1="1" y1="49" x2="65" y2="49" stroke="black" stroke-opacity="0.1" stroke-width="4" stroke-linecap="round"/>
<line x1="91" y1="186" x2="125" y2="186" stroke="black" stroke-opacity="0.1" stroke-width="4" stroke-linecap="round"/>
<line x1="246" y1="58" x2="284" y2="58" stroke="black" stroke-opacity="0.1" stroke-width="4" stroke-linecap="round"/>
<line x1="224" y1="171" x2="288" y2="171" stroke="black" stroke-opacity="0.1" stroke-width="4" stroke-linecap="round"/>
<line x1="149" y1="154" x2="165" y2="154" stroke="black" stroke-opacity="0.1" stroke-width="4" stroke-linecap="round"/>
<line x1="256" y1="17" x2="320" y2="17" stroke="black" stroke-opacity="0.1" stroke-width="4" stroke-linecap="round"/>
<line x1="61" y1="71" x2="125" y2="71" stroke="black" stroke-opacity="0.1" stroke-width="4" stroke-linecap="round"/>
<line x1="61" y1="23" x2="101" y2="23" stroke="black" stroke-opacity="0.1" stroke-width="4" stroke-linecap="round"/>
<g filter="url(#filter1_d_71_7)">
<path d="M82.166 127.369C79.6816 127.369 77.5195 126.854 75.6797 125.822C73.8398 124.779 72.416 123.309 71.4082 121.41C70.4121 119.5 69.9141 117.244 69.9141 114.643L69.9141 113.781C69.9141 111.297 70.3945 109.1 71.3555 107.189C72.3281 105.268 73.7109 103.762 75.5039 102.672C77.2969 101.582 79.4297 101.037 81.9023 101.037C83.6367 101.037 85.2598 101.283 86.7715 101.775C88.2949 102.268 89.6543 103.018 90.8496 104.025L90.8496 110.213L87.0352 110.213L86.5078 106.328C86.1211 106.047 85.6992 105.807 85.2422 105.607C84.7852 105.408 84.2871 105.256 83.748 105.15C83.2207 105.045 82.6465 104.992 82.0254 104.992C80.5723 104.992 79.3242 105.35 78.2813 106.064C77.2383 106.779 76.4355 107.793 75.873 109.105C75.3223 110.406 75.0469 111.953 75.0469 113.746L75.0469 114.643C75.0469 116.436 75.3398 117.988 75.9258 119.301C76.5117 120.613 77.3438 121.633 78.4219 122.359C79.5 123.074 80.7773 123.432 82.2539 123.432C82.9922 123.432 83.7305 123.35 84.4688 123.186C85.2188 123.01 85.8984 122.787 86.5078 122.518L87.0352 118.914L90.8496 118.914L90.8496 125.031C89.8535 125.687 88.6113 126.244 87.123 126.701C85.6348 127.146 83.9824 127.369 82.166 127.369ZM104.947 127.369C103.225 127.369 101.654 127.047 100.236 126.402C98.8184 125.758 97.5938 124.855 96.5625 123.695C95.543 122.523 94.7578 121.152 94.207 119.582C93.6563 118 93.3809 116.271 93.3809 114.396L93.3809 114.01C93.3809 112.146 93.6563 110.43 94.207 108.859C94.7578 107.277 95.543 105.9 96.5625 104.729C97.582 103.557 98.8008 102.648 100.219 102.004C101.637 101.359 103.207 101.037 104.93 101.037C106.664 101.037 108.246 101.359 109.676 102.004C111.105 102.648 112.336 103.557 113.367 104.729C114.398 105.9 115.189 107.277 115.74 108.859C116.303 110.43 116.584 112.146 116.584 114.01L116.584 114.396C116.584 116.271 116.303 118 115.74 119.582C115.189 121.152 114.398 122.523 113.367 123.695C112.336 124.855 111.105 125.758 109.676 126.402C108.258 127.047 106.682 127.369 104.947 127.369ZM104.947 123.379C106.4 123.379 107.607 123.004 108.568 122.254C109.529 121.504 110.25 120.455 110.73 119.107C111.223 117.76 111.469 116.189 111.469 114.396L111.469 113.975C111.469 112.205 111.223 110.652 110.73 109.316C110.238 107.969 109.506 106.92 108.533 106.17C107.572 105.42 106.371 105.045 104.93 105.045C103.5 105.045 102.311 105.42 101.361 106.17C100.412 106.908 99.6973 107.945 99.2168 109.281C98.748 110.617 98.5137 112.182 98.5137 113.975L98.5137 114.396C98.5137 116.189 98.748 117.76 99.2168 119.107C99.6973 120.455 100.412 121.504 101.361 122.254C102.322 123.004 103.518 123.379 104.947 123.379ZM118.641 127L118.641 123.924L121.365 123.396L121.365 105.027L118.641 104.5L118.641 101.406L121.365 101.406L126.568 101.406L137.713 119.16L137.818 119.143L137.818 105.027L134.549 104.5L134.549 101.406L142.406 101.406L145.148 101.406L145.148 104.5L142.406 105.027L142.406 127L137.449 127L126.059 109.422L125.953 109.439L125.953 123.396L129.24 123.924L129.24 127L118.641 127ZM156.961 127L148.734 104.781L146.449 104.5L146.449 101.406L156.627 101.406L156.627 104.5L154.324 104.852L159.352 119.951L159.738 121.357L159.844 121.357L160.213 119.986L165.24 104.852L162.551 104.5L162.551 101.406L172.254 101.406L172.254 104.5L169.934 104.781L162.217 127L156.961 127ZM173.836 127L173.836 123.924L176.561 123.396L176.561 105.027L173.836 104.5L173.836 101.406L193.699 101.406L193.699 108.314L189.762 108.314L189.533 105.361L181.693 105.361L181.693 111.795L190.359 111.795L190.359 115.75L181.693 115.75L181.693 123.062L189.955 123.062L190.184 120.004L194.086 120.004L194.086 127L173.836 127ZM196.828 127L196.828 123.924L199.553 123.396L199.553 105.027L196.828 104.5L196.828 101.406L208.957 101.406C210.926 101.406 212.613 101.711 214.02 102.32C215.426 102.93 216.504 103.803 217.254 104.939C218.016 106.076 218.396 107.441 218.396 109.035C218.396 110.535 218.021 111.877 217.271 113.061C216.521 114.244 215.479 115.176 214.143 115.855C212.807 116.535 211.266 116.881 209.52 116.893L204.686 116.893L204.686 123.396L207.428 123.924L207.428 127L196.828 127ZM213.299 127L208.992 115.943L213.615 114.801L217.342 123.414L219.521 123.924L219.521 127L213.299 127ZM204.686 112.937L208.869 112.937C210.346 112.937 211.447 112.627 212.174 112.006C212.912 111.373 213.281 110.459 213.281 109.264C213.281 108.08 212.918 107.137 212.191 106.434C211.465 105.719 210.387 105.361 208.957 105.361L204.686 105.361L204.686 112.937ZM256.875 127L256.875 123.924L259.6 123.396L259.6 105.027L256.875 104.5L256.875 101.406L276.738 101.406L276.738 108.314L272.801 108.314L272.572 105.361L264.732 105.361L264.732 111.795L273.398 111.795L273.398 115.75L264.732 115.75L264.732 123.062L272.994 123.062L273.223 120.004L277.125 120.004L277.125 127L256.875 127ZM279.867 127L279.867 123.924L282.592 123.396L282.592 105.027L279.867 104.5L279.867 101.406L291.996 101.406C293.965 101.406 295.652 101.711 297.059 102.32C298.465 102.93 299.543 103.803 300.293 104.939C301.055 106.076 301.436 107.441 301.436 109.035C301.436 110.535 301.061 111.877 300.311 113.061C299.561 114.244 298.518 115.176 297.182 115.855C295.846 116.535 294.305 116.881 292.559 116.893L287.725 116.893L287.725 123.396L290.467 123.924L290.467 127L279.867 127ZM296.338 127L292.031 115.943L296.654 114.801L300.381 123.414L302.561 123.924L302.561 127L296.338 127ZM287.725 112.937L291.908 112.937C293.385 112.937 294.486 112.627 295.213 112.006C295.951 111.373 296.32 110.459 296.32 109.264C296.32 108.08 295.957 107.137 295.23 106.434C294.504 105.719 293.426 105.361 291.996 105.361L287.725 105.361L287.725 112.937Z" fill="white"/>
</g>
<path d="M232.467 121.207L232.875 120.758V118.542L226.183 104.414H223.067L216.375 118.542V120.866L216.739 121.261C217.738 122.343 218.951 123.207 220.3 123.798C221.649 124.389 223.105 124.695 224.578 124.697H224.615C226.094 124.69 227.555 124.377 228.907 123.776C230.258 123.176 231.47 122.301 232.467 121.207ZM230.125 119.677C228.658 121.134 226.673 121.951 224.605 121.947H224.577C222.545 121.957 220.59 121.176 219.125 119.768V119.161L224.625 107.55L230.125 119.161V119.677ZM250.933 104.414H247.817L241.125 118.542V120.866L241.489 121.261C242.488 122.343 243.701 123.207 245.05 123.798C246.399 124.389 247.855 124.695 249.328 124.697H249.365C250.844 124.69 252.305 124.377 253.657 123.776C255.008 123.175 256.221 122.301 257.217 121.207L257.625 120.758V118.542L250.933 104.414ZM254.875 119.677C253.408 121.134 251.423 121.951 249.355 121.947H249.327C247.295 121.957 245.34 121.176 243.875 119.768V119.161L249.375 107.55L254.875 119.161V119.677Z" fill="white"/>
<path d="M238.375 104.9C239.14 104.67 239.836 104.255 240.401 103.69C240.965 103.125 241.381 102.429 241.611 101.664H250.75V98.9141H241.611C241.315 97.9209 240.707 97.0498 239.876 96.4305C239.045 95.8111 238.036 95.4765 237 95.4765C235.964 95.4765 234.955 95.8111 234.124 96.4305C233.293 97.0498 232.685 97.9209 232.389 98.9141H223.25V101.664H232.389C232.619 102.429 233.035 103.125 233.599 103.69C234.164 104.255 234.86 104.67 235.625 104.9V127.789H226.688V130.539H247.312V127.789H238.375V104.9ZM234.938 100.289C234.938 99.8811 235.058 99.4824 235.285 99.1432C235.512 98.804 235.834 98.5397 236.211 98.3836C236.588 98.2274 237.002 98.1866 237.402 98.2662C237.802 98.3458 238.17 98.5422 238.458 98.8306C238.747 99.1191 238.943 99.4866 239.023 99.8867C239.102 100.287 239.062 100.701 238.906 101.078C238.749 101.455 238.485 101.777 238.146 102.004C237.807 102.231 237.408 102.352 237 102.352C236.453 102.352 235.928 102.134 235.542 101.747C235.155 101.361 234.938 100.836 234.938 100.289Z" fill="white"/>
<defs>
<filter id="filter0_b_71_7" x="1" y="98" width="112" height="85" filterUnits="userSpaceOnUse" color-interpolation-filters="sRGB">
<feFlood flood-opacity="0" result="BackgroundImageFix"/>
<feGaussianBlur in="BackgroundImage" stdDeviation="2"/>
<feComposite in2="SourceAlpha" operator="in" result="effect1_backgroundBlur_71_7"/>
<feBlend mode="normal" in="SourceGraphic" in2="effect1_backgroundBlur_71_7" result="shape"/>
</filter>
<filter id="filter1_d_71_7" x="65.9141" y="100.037" width="240.646" height="34.332" filterUnits="userSpaceOnUse" color-interpolation-filters="sRGB">
<feFlood flood-opacity="0" result="BackgroundImageFix"/>
<feColorMatrix in="SourceAlpha" type="matrix" values="0 0 0 0 0 0 0 0 0 0 0 0 0 0 0 0 0 0 127 0" result="hardAlpha"/>
<feOffset dy="3"/>
<feGaussianBlur stdDeviation="2"/>
<feComposite in2="hardAlpha" operator="out"/>
<feColorMatrix type="matrix" values="0 0 0 0 0 0 0 0 0 0 0 0 0 0 0 0 0 0 0.25 0"/>
<feBlend mode="normal" in2="BackgroundImageFix" result="effect1_dropShadow_71_7"/>
<feBlend mode="normal" in="SourceGraphic" in2="effect1_dropShadow_71_7" result="shape"/>
</filter>
<clipPath id="clip0_71_7">
<rect width="104" height="77" fill="white" transform="translate(5 102)"/>
</clipPath>
</defs>
</svg>
