<svg width="148" height="108" viewBox="0 0 148 108" fill="none" xmlns="http://www.w3.org/2000/svg">
<g filter="url(#filter0_d_26_112)">
<rect x="2" y="2" width="140" height="100" rx="10" fill="white"/>
</g>
<g clip-path="url(#clip0_26_112)">
<path d="M90.2186 35.0703C88.8145 32.3164 84.7903 32.3062 83.3758 35.0703C76.443 48.6875 76.6741 48.0312 76.6741 49.25C76.6741 52.6977 81.2362 55.5 86.8741 55.5C92.512 55.5 97.0024 52.6969 97.0024 49.25C96.9283 47.9922 97.1116 48.5703 90.2186 35.0703ZM80.9908 48L86.7251 36.75L92.4761 48H80.9908ZM66.4 49.25C66.4 47.9906 66.5096 48.5664 59.617 35.0703C58.2129 32.3164 54.1887 32.3062 52.7742 35.0703C45.8414 48.6875 46.0725 48.0312 46.0725 49.25C46.0725 52.6977 50.6346 55.5 56.2008 55.5C61.767 55.5 66.4 52.6953 66.4 49.25ZM56.192 36.75L61.9455 48H50.4593L56.192 36.75ZM85.4533 58H74.05V34.9766C75.9227 34.1719 77.3252 32.5156 77.7475 30.5H86.8C88.2081 30.5 89.2783 29.3805 89.2783 28C89.2783 26.6195 88.1364 25.5 86.8 25.5H76.5681C75.4031 23.9859 73.5798 23 71.4984 23C69.417 23 67.5236 23.9859 66.4319 25.5H56.2C54.7895 25.5 53.65 26.6195 53.65 28C53.65 29.3805 54.7895 30.5 56.1283 30.5H65.1808C65.5991 32.5117 67.0032 34.1719 68.8759 34.9727V58H57.475C55.3625 58 53.6492 59.6789 53.6492 61.75C53.6492 62.4403 54.2202 63 54.9242 63H88.0742C88.7783 63 89.3492 62.4403 89.3492 61.75C89.35 59.6797 87.6367 58 85.4533 58Z" fill="#FF0000"/>
</g>
<path d="M56.046 81.004C56.8487 81.004 57.5207 81.0833 58.062 81.242C58.6033 81.4007 59.0093 81.6667 59.28 82.04C59.5507 82.404 59.686 82.8893 59.686 83.496C59.686 83.888 59.6207 84.238 59.49 84.546C59.3593 84.8447 59.168 85.0967 58.916 85.302C58.664 85.498 58.3653 85.6287 58.02 85.694V85.764C58.3747 85.8293 58.7013 85.9507 59 86.128C59.2987 86.296 59.532 86.5433 59.7 86.87C59.8773 87.1967 59.966 87.6213 59.966 88.144C59.966 88.7507 59.8307 89.2687 59.56 89.698C59.2893 90.118 58.902 90.44 58.398 90.664C57.9033 90.888 57.3107 91 56.62 91H53.218V81.004H56.046ZM56.242 85.176C56.9513 85.176 57.4367 85.05 57.698 84.798C57.9593 84.546 58.09 84.1727 58.09 83.678C58.09 83.174 57.9313 82.8147 57.614 82.6C57.2967 82.3853 56.7927 82.278 56.102 82.278H54.772V85.176H56.242ZM54.772 86.408V89.74H56.396C57.124 89.74 57.6327 89.5813 57.922 89.264C58.2113 88.9467 58.356 88.5267 58.356 88.004C58.356 87.6867 58.2907 87.4067 58.16 87.164C58.0293 86.9213 57.8147 86.7347 57.516 86.604C57.2267 86.4733 56.83 86.408 56.326 86.408H54.772ZM67.22 91H61.886V81.004H67.22V82.292H63.44V85.148H66.996V86.422H63.44V89.698H67.22V91ZM71.9024 81.004C72.7051 81.004 73.3678 81.1113 73.8904 81.326C74.4131 81.5407 74.8004 81.8627 75.0524 82.292C75.3138 82.712 75.4444 83.244 75.4444 83.888C75.4444 84.4013 75.3558 84.8353 75.1784 85.19C75.0104 85.5353 74.7864 85.82 74.5064 86.044C74.2358 86.2587 73.9418 86.4313 73.6244 86.562L76.2704 91H74.5064L72.2804 86.954H70.7544V91H69.2004V81.004H71.9024ZM71.8324 82.292H70.7544V85.694H71.8604C72.3178 85.694 72.6911 85.6287 72.9804 85.498C73.2791 85.3673 73.4984 85.1713 73.6384 84.91C73.7878 84.6487 73.8624 84.3267 73.8624 83.944C73.8624 83.5427 73.7878 83.2253 73.6384 82.992C73.4984 82.7493 73.2744 82.572 72.9664 82.46C72.6678 82.348 72.2898 82.292 71.8324 82.292ZM83.447 91L82.509 88.116H78.939L78.001 91H76.377L79.891 80.962H81.571L85.071 91H83.447ZM81.179 83.986C81.151 83.874 81.1043 83.72 81.039 83.524C80.983 83.3187 80.927 83.1087 80.871 82.894C80.815 82.67 80.7636 82.4833 80.717 82.334C80.6796 82.5393 80.633 82.7447 80.577 82.95C80.521 83.1553 80.4696 83.3467 80.423 83.524C80.3763 83.7013 80.3343 83.8553 80.297 83.986L79.373 86.8H82.103L81.179 83.986ZM88.6503 91H87.1103V82.306H84.3383V81.004H91.4083V82.306H88.6503V91Z" fill="black"/>
<defs>
<filter id="filter0_d_26_112" x="0" y="0" width="148" height="108" filterUnits="userSpaceOnUse" color-interpolation-filters="sRGB">
<feFlood flood-opacity="0" result="BackgroundImageFix"/>
<feColorMatrix in="SourceAlpha" type="matrix" values="0 0 0 0 0 0 0 0 0 0 0 0 0 0 0 0 0 0 127 0" result="hardAlpha"/>
<feOffset dx="2" dy="2"/>
<feGaussianBlur stdDeviation="2"/>
<feComposite in2="hardAlpha" operator="out"/>
<feColorMatrix type="matrix" values="0 0 0 0 0 0 0 0 0 0 0 0 0 0 0 0 0 0 0.2 0"/>
<feBlend mode="normal" in2="BackgroundImageFix" result="effect1_dropShadow_26_112"/>
<feBlend mode="normal" in="SourceGraphic" in2="effect1_dropShadow_26_112" result="shape"/>
</filter>
<clipPath id="clip0_26_112">
<rect width="51" height="40" fill="white" transform="translate(46 23)"/>
</clipPath>
</defs>
</svg>
