<svg width="148" height="108" viewBox="0 0 148 108" fill="none" xmlns="http://www.w3.org/2000/svg">
<g filter="url(#filter0_d_26_198)">
<rect x="2" y="2" width="140" height="100" rx="10" fill="white"/>
</g>
<path d="M65.1748 85.904C65.1748 87.024 64.9742 87.962 64.5728 88.718C64.1808 89.474 63.6162 90.0433 62.8788 90.426C62.1415 90.8087 61.2502 91 60.2048 91H57.5168V81.004H60.4848C61.4462 81.004 62.2768 81.1907 62.9768 81.564C63.6768 81.9373 64.2182 82.488 64.6008 83.216C64.9835 83.9347 65.1748 84.8307 65.1748 85.904ZM63.5508 85.946C63.5508 85.106 63.4295 84.4153 63.1868 83.874C62.9442 83.3327 62.5848 82.9313 62.1088 82.67C61.6422 82.4087 61.0682 82.278 60.3868 82.278H59.0708V89.726H60.1628C61.2922 89.726 62.1368 89.4087 62.6968 88.774C63.2662 88.1393 63.5508 87.1967 63.5508 85.946ZM72.7614 91L71.8234 88.116H68.2534L67.3154 91H65.6914L69.2054 80.962H70.8854L74.3854 91H72.7614ZM70.4934 83.986C70.4654 83.874 70.4187 83.72 70.3534 83.524C70.2974 83.3187 70.2414 83.1087 70.1854 82.894C70.1294 82.67 70.0781 82.4833 70.0314 82.334C69.9941 82.5393 69.9474 82.7447 69.8914 82.95C69.8354 83.1553 69.7841 83.3467 69.7374 83.524C69.6907 83.7013 69.6487 83.8553 69.6114 83.986L68.6874 86.8H71.4174L70.4934 83.986ZM77.9647 91H76.4247V82.306H73.6527V81.004H80.7227V82.306H77.9647V91ZM87.0622 91L86.1242 88.116H82.5542L81.6162 91H79.9922L83.5062 80.962H85.1862L88.6862 91H87.0622ZM84.7942 83.986C84.7662 83.874 84.7195 83.72 84.6542 83.524C84.5982 83.3187 84.5422 83.1087 84.4862 82.894C84.4302 82.67 84.3789 82.4833 84.3322 82.334C84.2949 82.5393 84.2482 82.7447 84.1922 82.95C84.1362 83.1553 84.0849 83.3467 84.0382 83.524C83.9915 83.7013 83.9495 83.8553 83.9122 83.986L82.9882 86.8H85.7182L84.7942 83.986Z" fill="black"/>
<path d="M92.1134 35.314H54.6134C53.7848 35.3131 52.9904 34.9836 52.4046 34.3978C51.8187 33.8119 51.4892 33.0175 51.4884 32.189V25.939C51.4892 25.1104 51.8187 24.316 52.4046 23.7302C52.9904 23.1443 53.7848 22.8148 54.6134 22.814H92.1134C92.9419 22.8148 93.7363 23.1443 94.3222 23.7302C94.908 24.316 95.2375 25.1104 95.2384 25.939V32.189C95.2375 33.0175 94.908 33.8119 94.3222 34.3978C93.7363 34.9836 92.9419 35.3131 92.1134 35.314ZM54.6134 25.939V32.189H92.1134V25.939H54.6134ZM92.1134 66.564H54.6134C53.7848 66.5631 52.9904 66.2336 52.4046 65.6478C51.8187 65.0619 51.4892 64.2675 51.4884 63.439V57.189C51.4892 56.3604 51.8187 55.566 52.4046 54.9802C52.9904 54.3943 53.7848 54.0648 54.6134 54.064H92.1134C92.9419 54.0648 93.7363 54.3943 94.3222 54.9802C94.908 55.566 95.2375 56.3604 95.2384 57.189V63.439C95.2375 64.2675 94.908 65.0619 94.3222 65.6478C93.7363 66.2336 92.9419 66.5631 92.1134 66.564ZM54.6134 57.189V63.439H92.1134V57.189H54.6134ZM92.1134 50.939H54.6134C53.7848 50.9381 52.9904 50.6086 52.4046 50.0228C51.8187 49.4369 51.4892 48.6425 51.4884 47.814V41.564C51.4892 40.7354 51.8187 39.941 52.4046 39.3552C52.9904 38.7693 53.7848 38.4398 54.6134 38.439H92.1134C92.9419 38.4398 93.7363 38.7693 94.3222 39.3552C94.908 39.941 95.2375 40.7354 95.2384 41.564V47.814C95.2375 48.6425 94.908 49.4369 94.3222 50.0228C93.7363 50.6086 92.9419 50.9381 92.1134 50.939ZM54.6134 41.564V47.814H92.1134V41.564H54.6134Z" fill="#FF0000"/>
<defs>
<filter id="filter0_d_26_198" x="0" y="0" width="148" height="108" filterUnits="userSpaceOnUse" color-interpolation-filters="sRGB">
<feFlood flood-opacity="0" result="BackgroundImageFix"/>
<feColorMatrix in="SourceAlpha" type="matrix" values="0 0 0 0 0 0 0 0 0 0 0 0 0 0 0 0 0 0 127 0" result="hardAlpha"/>
<feOffset dx="2" dy="2"/>
<feGaussianBlur stdDeviation="2"/>
<feComposite in2="hardAlpha" operator="out"/>
<feColorMatrix type="matrix" values="0 0 0 0 0 0 0 0 0 0 0 0 0 0 0 0 0 0 0.2 0"/>
<feBlend mode="normal" in2="BackgroundImageFix" result="effect1_dropShadow_26_198"/>
<feBlend mode="normal" in="SourceGraphic" in2="effect1_dropShadow_26_198" result="shape"/>
</filter>
</defs>
</svg>
