<svg width="148" height="108" viewBox="0 0 148 108" fill="none" xmlns="http://www.w3.org/2000/svg">
<g filter="url(#filter0_d_26_192)">
<rect x="2" y="2" width="140" height="100" rx="10" fill="white"/>
</g>
<path d="M44.8404 91H43.0484L40.1224 86.394L39.2124 87.206V91H37.6584V81.004H39.2124V85.834C39.4271 85.5447 39.6464 85.26 39.8704 84.98C40.0944 84.7 40.3184 84.42 40.5424 84.14L42.9924 81.004H44.7564L41.2284 85.372L44.8404 91ZM51.387 91H46.053V81.004H51.387V82.292H47.607V85.148H51.163V86.422H47.607V89.698H51.387V91ZM57.4134 82.166C56.9654 82.166 56.5594 82.2547 56.1954 82.432C55.8407 82.6 55.5374 82.852 55.2854 83.188C55.0427 83.524 54.8561 83.93 54.7254 84.406C54.5947 84.882 54.5294 85.4187 54.5294 86.016C54.5294 86.8 54.6367 87.4813 54.8514 88.06C55.0661 88.6293 55.3881 89.068 55.8174 89.376C56.2467 89.684 56.7787 89.838 57.4134 89.838C57.8241 89.838 58.2161 89.8007 58.5894 89.726C58.9627 89.642 59.3407 89.5347 59.7234 89.404V90.706C59.3501 90.8553 58.9674 90.9627 58.5754 91.028C58.1927 91.1027 57.7447 91.14 57.2314 91.14C56.2607 91.14 55.4581 90.93 54.8234 90.51C54.1887 90.09 53.7127 89.4927 53.3954 88.718C53.0781 87.9433 52.9194 87.038 52.9194 86.002C52.9194 85.246 53.0174 84.5553 53.2134 83.93C53.4094 83.2953 53.6987 82.7493 54.0814 82.292C54.4641 81.8347 54.9354 81.4847 55.4954 81.242C56.0554 80.99 56.6947 80.864 57.4134 80.864C57.8987 80.864 58.3747 80.92 58.8414 81.032C59.3081 81.1347 59.7234 81.284 60.0874 81.48L59.5414 82.74C59.2334 82.5907 58.8974 82.46 58.5334 82.348C58.1787 82.2267 57.8054 82.166 57.4134 82.166ZM67.0549 91H61.7209V81.004H67.0549V82.292H63.2749V85.148H66.8309V86.422H63.2749V89.698H67.0549V91ZM71.7374 81.004C72.96 81.004 73.8514 81.27 74.4114 81.802C74.9807 82.3247 75.2654 83.0573 75.2654 84C75.2654 84.42 75.2 84.8213 75.0694 85.204C74.948 85.5867 74.7427 85.932 74.4534 86.24C74.1734 86.5387 73.7954 86.7767 73.3194 86.954C72.8434 87.122 72.26 87.206 71.5694 87.206H70.5894V91H69.0354V81.004H71.7374ZM71.6534 82.278H70.5894V85.932H71.4014C71.9054 85.932 72.3254 85.8713 72.6614 85.75C72.9974 85.6193 73.2494 85.4187 73.4174 85.148C73.5947 84.868 73.6834 84.504 73.6834 84.056C73.6834 83.4587 73.52 83.0153 73.1934 82.726C72.8667 82.4273 72.3534 82.278 71.6534 82.278ZM82.3112 91L81.3732 88.116H77.8032L76.8652 91H75.2412L78.7552 80.962H80.4352L83.9352 91H82.3112ZM80.0432 83.986C80.0152 83.874 79.9685 83.72 79.9032 83.524C79.8472 83.3187 79.7912 83.1087 79.7352 82.894C79.6792 82.67 79.6279 82.4833 79.5812 82.334C79.5439 82.5393 79.4972 82.7447 79.4412 82.95C79.3852 83.1553 79.3339 83.3467 79.2872 83.524C79.2405 83.7013 79.1985 83.8553 79.1612 83.986L78.2372 86.8H80.9672L80.0432 83.986ZM87.5145 91H85.9745V82.306H83.2025V81.004H90.2725V82.306H87.5145V91ZM96.612 91L95.674 88.116H92.104L91.166 91H89.542L93.056 80.962H94.736L98.236 91H96.612ZM94.344 83.986C94.316 83.874 94.2693 83.72 94.204 83.524C94.148 83.3187 94.092 83.1087 94.036 82.894C93.98 82.67 93.9287 82.4833 93.882 82.334C93.8447 82.5393 93.798 82.7447 93.742 82.95C93.686 83.1553 93.6347 83.3467 93.588 83.524C93.5413 83.7013 93.4993 83.8553 93.462 83.986L92.538 86.8H95.268L94.344 83.986ZM107.323 91H105.419L100.813 82.922H100.757C100.766 83.1087 100.776 83.3093 100.785 83.524C100.804 83.7387 100.818 83.9673 100.827 84.21C100.836 84.4433 100.846 84.686 100.855 84.938C100.864 85.1807 100.874 85.428 100.883 85.68V91H99.469V81.004H101.359L105.951 89.04H106.007C105.998 88.9 105.988 88.7273 105.979 88.522C105.97 88.3073 105.96 88.0787 105.951 87.836C105.942 87.5933 105.932 87.346 105.923 87.094C105.914 86.842 105.909 86.604 105.909 86.38V81.004H107.323V91Z" fill="black"/>
<path d="M93.6483 33.1392L90.4708 37.9183C92.0032 40.9746 92.7534 44.3633 92.6542 47.7808C92.555 51.1982 91.6096 54.5377 89.9025 57.5H54.0975C51.8789 53.6511 50.9595 49.1897 51.4758 44.7772C51.9921 40.3648 53.9164 36.2361 56.9637 33.0033C60.0109 29.7706 64.0187 27.6058 68.393 26.8299C72.7673 26.054 77.2752 26.7083 81.2483 28.6958L86.0275 25.5183C81.1618 22.3982 75.3902 21.0001 69.636 21.5476C63.8818 22.0951 58.4774 24.5565 54.2874 28.5383C50.0973 32.52 47.3637 37.7919 46.5237 43.5108C45.6838 49.2296 46.786 55.0649 49.6542 60.0833C50.105 60.8642 50.7523 61.5135 51.5318 61.9667C52.3113 62.4199 53.1959 62.6612 54.0975 62.6667H89.8767C90.7871 62.6703 91.6823 62.4333 92.4716 61.9796C93.261 61.526 93.9165 60.8718 94.3717 60.0833C96.7519 55.9601 97.9464 51.2594 97.8233 46.5C97.7002 41.7407 96.2643 37.108 93.6742 33.1133L93.6483 33.1392ZM68.3575 50.8092C68.8374 51.2895 69.4072 51.6706 70.0344 51.9306C70.6616 52.1906 71.3339 52.3245 72.0129 52.3245C72.6919 52.3245 73.3642 52.1906 73.9914 51.9306C74.6187 51.6706 75.1885 51.2895 75.6683 50.8092L90.29 28.8767L68.3575 43.4983C67.8771 43.9782 67.496 44.548 67.236 45.1752C66.976 45.8024 66.8422 46.4748 66.8422 47.1537C66.8422 47.8327 66.976 48.505 67.236 49.1323C67.496 49.7595 67.8771 50.3293 68.3575 50.8092Z" fill="#FF0000"/>
<defs>
<filter id="filter0_d_26_192" x="0" y="0" width="148" height="108" filterUnits="userSpaceOnUse" color-interpolation-filters="sRGB">
<feFlood flood-opacity="0" result="BackgroundImageFix"/>
<feColorMatrix in="SourceAlpha" type="matrix" values="0 0 0 0 0 0 0 0 0 0 0 0 0 0 0 0 0 0 127 0" result="hardAlpha"/>
<feOffset dx="2" dy="2"/>
<feGaussianBlur stdDeviation="2"/>
<feComposite in2="hardAlpha" operator="out"/>
<feColorMatrix type="matrix" values="0 0 0 0 0 0 0 0 0 0 0 0 0 0 0 0 0 0 0.2 0"/>
<feBlend mode="normal" in2="BackgroundImageFix" result="effect1_dropShadow_26_192"/>
<feBlend mode="normal" in="SourceGraphic" in2="effect1_dropShadow_26_192" result="shape"/>
</filter>
</defs>
</svg>
