<svg width="185" height="35" viewBox="0 0 185 35" fill="none" xmlns="http://www.w3.org/2000/svg">
<path d="M43.9509 27.9178H40.0629V13.8058H35.9109V10.7818H48.1029V13.8058H43.9509V27.9178ZM59.9062 27.9178H50.4982V10.7818H59.9062V13.7578H54.3862V17.5258H59.5222V20.5018H54.3862V24.9178H59.9062V27.9178ZM69.9258 27.9178L66.3498 14.4778H66.2538C66.2698 14.7978 66.2938 15.2778 66.3258 15.9178C66.3578 16.5578 66.3898 17.2458 66.4218 17.9818C66.4538 18.7018 66.4698 19.3578 66.4698 19.9498V27.9178H63.0138V10.7818H68.2458L71.8218 23.8858H71.8938L75.5658 10.7818H80.7978V27.9178H77.1978V19.8058C77.1978 19.2618 77.2058 18.6378 77.2218 17.9338C77.2378 17.2298 77.2618 16.5658 77.2938 15.9418C77.3258 15.3018 77.3498 14.8218 77.3658 14.5018H77.2698L73.5738 27.9178H69.9258ZM89.9517 10.7818C92.0157 10.7818 93.5357 11.2618 94.5117 12.2218C95.5037 13.1658 95.9997 14.4698 95.9997 16.1338C95.9997 16.8858 95.8957 17.6058 95.6877 18.2938C95.4797 18.9658 95.1357 19.5738 94.6557 20.1178C94.1757 20.6458 93.5357 21.0618 92.7357 21.3658C91.9517 21.6698 90.9837 21.8218 89.8317 21.8218H88.4877V27.9178H84.5997V10.7818H89.9517ZM89.8317 13.7578H88.4877V18.8458H89.4717C89.9837 18.8458 90.4397 18.7578 90.8397 18.5818C91.2397 18.4058 91.5517 18.1258 91.7757 17.7418C91.9997 17.3578 92.1117 16.8618 92.1117 16.2538C92.1117 15.4058 91.9197 14.7818 91.5357 14.3818C91.1677 13.9658 90.5997 13.7578 89.8317 13.7578ZM108.234 27.9178H98.8263V10.7818H108.234V13.7578H102.714V17.5258H107.85V20.5018H102.714V24.9178H108.234V27.9178ZM116.334 10.7818C117.79 10.7818 118.998 10.9738 119.958 11.3578C120.918 11.7258 121.63 12.2938 122.094 13.0618C122.574 13.8138 122.814 14.7658 122.814 15.9178C122.814 16.7018 122.686 17.3898 122.43 17.9818C122.19 18.5578 121.854 19.0538 121.422 19.4698C120.99 19.8698 120.502 20.1978 119.958 20.4538L124.662 27.9178H120.318L116.694 21.3418H115.23V27.9178H111.342V10.7818H116.334ZM116.166 13.7578H115.23V18.3898H116.19C116.782 18.3898 117.278 18.3018 117.678 18.1258C118.078 17.9498 118.382 17.6858 118.59 17.3338C118.798 16.9658 118.902 16.5258 118.902 16.0138C118.902 15.4698 118.806 15.0378 118.614 14.7178C118.422 14.3818 118.126 14.1418 117.726 13.9978C117.326 13.8378 116.806 13.7578 116.166 13.7578ZM136.276 27.9178L135.292 23.8378H129.748L128.74 27.9178H124.516L129.988 10.7098H134.98L140.476 27.9178H136.276ZM133.324 16.8058C133.228 16.4698 133.132 16.1178 133.036 15.7498C132.94 15.3818 132.844 14.9978 132.748 14.5978C132.668 14.1978 132.588 13.7898 132.508 13.3738C132.444 13.7898 132.364 14.2058 132.268 14.6218C132.172 15.0218 132.076 15.4058 131.98 15.7738C131.9 16.1418 131.812 16.4858 131.716 16.8058L130.612 20.7898H134.452L133.324 16.8058ZM147.427 27.9178H143.539V13.8058H139.387V10.7818H151.579V13.8058H147.427V27.9178ZM167.367 21.8698C167.367 23.0538 167.111 24.1258 166.599 25.0858C166.103 26.0298 165.351 26.7818 164.343 27.3418C163.335 27.8858 162.071 28.1578 160.551 28.1578C158.375 28.1578 156.711 27.5818 155.559 26.4298C154.423 25.2618 153.855 23.7258 153.855 21.8218V10.7818H157.743V21.2698C157.743 22.6778 157.983 23.6698 158.463 24.2458C158.959 24.8218 159.679 25.1098 160.623 25.1098C161.295 25.1098 161.839 24.9738 162.255 24.7018C162.671 24.4298 162.975 24.0058 163.167 23.4298C163.375 22.8538 163.479 22.1258 163.479 21.2458V10.7818H167.367V21.8698ZM176.029 10.7818C177.485 10.7818 178.693 10.9738 179.653 11.3578C180.613 11.7258 181.325 12.2938 181.789 13.0618C182.269 13.8138 182.509 14.7658 182.509 15.9178C182.509 16.7018 182.381 17.3898 182.125 17.9818C181.885 18.5578 181.549 19.0538 181.117 19.4698C180.685 19.8698 180.197 20.1978 179.653 20.4538L184.357 27.9178H180.013L176.389 21.3418H174.925V27.9178H171.037V10.7818H176.029ZM175.861 13.7578H174.925V18.3898H175.885C176.477 18.3898 176.973 18.3018 177.373 18.1258C177.773 17.9498 178.077 17.6858 178.285 17.3338C178.493 16.9658 178.597 16.5258 178.597 16.0138C178.597 15.4698 178.501 15.0378 178.309 14.7178C178.117 14.3818 177.821 14.1418 177.421 13.9978C177.021 13.8378 176.501 13.7578 175.861 13.7578Z" fill="white"/>
<path d="M28.4375 0C24.8213 0 21.875 2.94629 21.875 6.5625C21.875 10.1787 24.8213 13.125 28.4375 13.125C32.0537 13.125 35 10.1787 35 6.5625C35 2.94629 32.0537 0 28.4375 0ZM28.4375 8.75C27.2275 8.75 26.25 7.77246 26.25 6.5625C26.25 5.35254 27.2275 4.375 28.4375 4.375C29.6475 4.375 30.625 5.35254 30.625 6.5625C30.625 7.77246 29.6475 8.75 28.4375 8.75ZM17.5 7.65625C17.5 3.4248 14.0752 0 9.84375 0C5.6123 0 2.1875 3.4248 2.1875 7.65625V19.0381C0.84082 20.7266 0 22.832 0 25.1562C0 30.5908 4.40918 35 9.84375 35C15.2783 35 19.6875 30.5908 19.6875 25.1562C19.6875 22.832 18.8467 20.7197 17.5 19.0381V7.65625ZM9.84375 30.625C6.8291 30.625 4.375 28.1709 4.375 25.1562C4.375 23.4131 5.20898 21.8135 6.5625 20.7949V7.65625C6.5625 5.84473 8.03223 4.375 9.84375 4.375C11.6553 4.375 13.125 5.84473 13.125 7.65625V20.7949C14.4785 21.8066 15.3125 23.4131 15.3125 25.1562C15.3125 28.1709 12.8584 30.625 9.84375 30.625ZM10.9375 22.0732V20.7812C10.9375 20.1797 10.4453 19.6875 9.84375 19.6875C9.24219 19.6875 8.75 20.1797 8.75 20.7812V22.0732C7.47852 22.5244 6.5625 23.7275 6.5625 25.1562C6.5625 26.9678 8.03223 28.4375 9.84375 28.4375C11.6553 28.4375 13.125 26.9678 13.125 25.1562C13.125 23.7275 12.209 22.5244 10.9375 22.0732Z" fill="white"/>
</svg>
