<svg width="152" height="39" viewBox="0 0 152 39" fill="none" xmlns="http://www.w3.org/2000/svg">
<path d="M51.6549 10.7818C53.7189 10.7818 55.2389 11.2618 56.2149 12.2218C57.2069 13.1658 57.7029 14.4698 57.7029 16.1338C57.7029 16.8858 57.5989 17.6058 57.3909 18.2938C57.1829 18.9658 56.8389 19.5738 56.3589 20.1178C55.8789 20.6458 55.2389 21.0618 54.4389 21.3658C53.6549 21.6698 52.6869 21.8218 51.5349 21.8218H50.1909V27.9178H46.3029V10.7818H51.6549ZM51.5349 13.7578H50.1909V18.8458H51.1749C51.6869 18.8458 52.1429 18.7578 52.5429 18.5818C52.9429 18.4058 53.2549 18.1258 53.4789 17.7418C53.7029 17.3578 53.8149 16.8618 53.8149 16.2538C53.8149 15.4058 53.6229 14.7818 53.2389 14.3818C52.8709 13.9658 52.3029 13.7578 51.5349 13.7578ZM69.2684 27.9178L68.2844 23.8378H62.7404L61.7324 27.9178H57.5084L62.9804 10.7098H67.9724L73.4684 27.9178H69.2684ZM66.3164 16.8058C66.2204 16.4698 66.1244 16.1178 66.0284 15.7498C65.9324 15.3818 65.8364 14.9978 65.7404 14.5978C65.6604 14.1978 65.5804 13.7898 65.5004 13.3738C65.4364 13.7898 65.3564 14.2058 65.2604 14.6218C65.1644 15.0218 65.0684 15.4058 64.9724 15.7738C64.8924 16.1418 64.8044 16.4858 64.7084 16.8058L63.6044 20.7898H67.4444L66.3164 16.8058ZM90.1734 27.9178H85.1574L78.7014 14.9578H78.6054C78.6214 15.3578 78.6374 15.7658 78.6534 16.1818C78.6694 16.5818 78.6854 16.9898 78.7014 17.4058C78.7334 17.8058 78.7574 18.2138 78.7734 18.6298C78.7894 19.0298 78.8054 19.4378 78.8214 19.8538V27.9178H75.3654V10.7818H80.3574L86.7894 23.6218H86.8614C86.8614 23.2218 86.8534 22.8298 86.8374 22.4458C86.8214 22.0458 86.7974 21.6538 86.7654 21.2698C86.7494 20.8698 86.7334 20.4778 86.7174 20.0938C86.7014 19.6938 86.6934 19.2938 86.6934 18.8938V10.7818H90.1734V27.9178ZM92.4867 32.9578C92.0227 32.9578 91.6147 32.9258 91.2627 32.8618C90.9107 32.8138 90.6067 32.7578 90.3507 32.6938V29.6698C90.5907 29.7338 90.8467 29.7898 91.1187 29.8378C91.3907 29.8858 91.6707 29.9098 91.9587 29.9098C92.4227 29.9098 92.7987 29.8298 93.0867 29.6698C93.3907 29.5098 93.6147 29.2058 93.7587 28.7578C93.9187 28.3098 93.9987 27.6698 93.9987 26.8378V10.7818H97.8867V26.8138C97.8867 28.2858 97.6627 29.4698 97.2147 30.3658C96.7667 31.2778 96.1347 31.9338 95.3187 32.3338C94.5187 32.7498 93.5747 32.9578 92.4867 32.9578ZM111.55 27.9178L110.566 23.8378H105.022L104.014 27.9178H99.7897L105.262 10.7098H110.254L115.75 27.9178H111.55ZM108.598 16.8058C108.502 16.4698 108.406 16.1178 108.31 15.7498C108.214 15.3818 108.118 14.9978 108.022 14.5978C107.942 14.1978 107.862 13.7898 107.782 13.3738C107.718 13.7898 107.638 14.2058 107.542 14.6218C107.446 15.0218 107.35 15.4058 107.254 15.7738C107.174 16.1418 107.086 16.4858 106.99 16.8058L105.886 20.7898H109.726L108.598 16.8058ZM132.455 27.9178H127.439L120.983 14.9578H120.887C120.903 15.3578 120.919 15.7658 120.935 16.1818C120.951 16.5818 120.967 16.9898 120.983 17.4058C121.015 17.8058 121.039 18.2138 121.055 18.6298C121.071 19.0298 121.087 19.4378 121.103 19.8538V27.9178H117.647V10.7818H122.639L129.071 23.6218H129.143C129.143 23.2218 129.135 22.8298 129.119 22.4458C129.103 22.0458 129.079 21.6538 129.047 21.2698C129.031 20.8698 129.015 20.4778 128.999 20.0938C128.983 19.6938 128.975 19.2938 128.975 18.8938V10.7818H132.455V27.9178ZM142.544 18.2938H149.192V27.1738C148.36 27.4778 147.448 27.7178 146.456 27.8938C145.464 28.0698 144.384 28.1578 143.216 28.1578C141.648 28.1578 140.288 27.8218 139.136 27.1498C138 26.4778 137.12 25.4858 136.496 24.1738C135.888 22.8618 135.584 21.2458 135.584 19.3258C135.584 17.5338 135.904 15.9818 136.544 14.6698C137.2 13.3578 138.152 12.3418 139.4 11.6218C140.664 10.9018 142.208 10.5418 144.032 10.5418C144.96 10.5418 145.856 10.6378 146.72 10.8298C147.584 11.0218 148.352 11.2778 149.024 11.5978L147.776 14.5018C147.232 14.2298 146.648 14.0058 146.024 13.8298C145.4 13.6538 144.736 13.5658 144.032 13.5658C143.056 13.5658 142.232 13.8058 141.56 14.2858C140.904 14.7658 140.408 15.4458 140.072 16.3258C139.752 17.1898 139.592 18.2138 139.592 19.3978C139.592 20.5178 139.736 21.5098 140.024 22.3738C140.312 23.2378 140.744 23.9178 141.32 24.4138C141.896 24.8938 142.624 25.1338 143.504 25.1338C143.76 25.1338 144.008 25.1258 144.248 25.1098C144.488 25.0778 144.712 25.0458 144.92 25.0138C145.144 24.9658 145.336 24.9258 145.496 24.8938V21.3178H142.544V18.2938Z" fill="white"/>
<path d="M6.04681 8.80845L12.9578 2.36044C13.7222 1.64643 14.9195 1.68998 15.6308 2.45047L18.8587 5.9062L13.6741 10.7465C13.4821 10.9279 13.473 11.222 13.65 11.415L14.2959 12.105C14.4728 12.298 14.774 12.3079 14.966 12.1265L20.1488 7.29195L22.7308 10.0577L20.3101 12.3124C20.1181 12.4937 20.109 12.7878 20.286 12.9809L20.9319 13.6708C21.1089 13.8639 21.41 13.8737 21.602 13.6923L24.0209 11.4435L26.6029 14.2092L21.4127 19.0478C21.2224 19.2234 21.2116 19.5233 21.3885 19.7163L22.0344 20.4063C22.2114 20.5993 22.5126 20.6092 22.7045 20.4278L27.8891 15.5874L30.4711 18.3532L28.0504 20.6078C27.8585 20.7892 27.8493 21.0833 28.0263 21.2763L28.6722 21.9663C28.8492 22.1593 29.1503 22.1692 29.3423 21.9878L31.7648 19.7274L34.3468 22.4931L29.1622 27.3335C28.972 27.5091 28.9611 27.8089 29.138 28.002L29.784 28.6919C29.9609 28.885 30.2621 28.8948 30.4541 28.7134L35.6333 23.8904L38.8613 27.3462C39.5708 28.1124 39.5347 29.3079 38.7703 30.0219L31.8575 36.4757C31.0932 37.1897 29.8959 37.1461 29.1846 36.3856L17.5674 23.934L5.95018 11.4824C5.23886 10.7219 5.28242 9.52245 6.04681 8.80845Z" fill="white"/>
</svg>
