<svg width="132" height="35" viewBox="0 0 132 35" fill="none" xmlns="http://www.w3.org/2000/svg">
<path d="M69.8707 10.7818L65.8147 27.9178H61.3027L59.4067 18.9178C59.3747 18.7418 59.3267 18.4778 59.2627 18.1258C59.1987 17.7738 59.1267 17.3898 59.0467 16.9738C58.9827 16.5578 58.9187 16.1658 58.8547 15.7978C58.8067 15.4138 58.7667 15.1178 58.7347 14.9098C58.7187 15.1178 58.6787 15.4138 58.6147 15.7978C58.5507 16.1658 58.4787 16.5578 58.3987 16.9738C58.3347 17.3738 58.2707 17.7578 58.2067 18.1258C58.1427 18.4778 58.0867 18.7498 58.0387 18.9418L56.1427 27.9178H51.6307L47.5747 10.7818H51.3667L53.2627 20.1418C53.3107 20.4138 53.3747 20.7498 53.4547 21.1498C53.5347 21.5338 53.6147 21.9418 53.6947 22.3738C53.7747 22.7898 53.8467 23.1978 53.9107 23.5978C53.9747 23.9978 54.0227 24.3418 54.0547 24.6298C54.1027 24.3258 54.1587 23.9818 54.2227 23.5978C54.3027 23.1978 54.3747 22.7898 54.4387 22.3738C54.5187 21.9578 54.5907 21.5738 54.6547 21.2218C54.7347 20.8538 54.7987 20.5578 54.8467 20.3338L56.9347 10.7818H60.5347L62.5747 20.3818C62.6227 20.5898 62.6787 20.8778 62.7427 21.2458C62.8227 21.5978 62.9027 21.9818 62.9827 22.3978C63.0627 22.8138 63.1347 23.2218 63.1987 23.6218C63.2627 24.0058 63.3187 24.3418 63.3667 24.6298C63.4147 24.2298 63.4867 23.7578 63.5827 23.2138C63.6787 22.6538 63.7827 22.0938 63.8947 21.5338C64.0067 20.9738 64.1027 20.5098 64.1827 20.1418L66.0787 10.7818H69.8707ZM80.8933 27.9178L79.9093 23.8378H74.3653L73.3573 27.9178H69.1333L74.6053 10.7098H79.5973L85.0933 27.9178H80.8933ZM77.9413 16.8058C77.8453 16.4698 77.7493 16.1178 77.6533 15.7498C77.5573 15.3818 77.4613 14.9978 77.3653 14.5978C77.2853 14.1978 77.2053 13.7898 77.1253 13.3738C77.0613 13.7898 76.9813 14.2058 76.8853 14.6218C76.7893 15.0218 76.6933 15.4058 76.5973 15.7738C76.5173 16.1418 76.4293 16.4858 76.3333 16.8058L75.2293 20.7898H79.0693L77.9413 16.8058ZM100.334 27.9178H95.9422L92.2462 20.6938L90.8782 21.7978V27.9178H86.9902V10.7818H90.8782V18.6298C91.0862 18.2938 91.3022 17.9578 91.5262 17.6218C91.7662 17.2858 91.9982 16.9498 92.2222 16.6138L96.0862 10.7818H100.358L95.0302 18.3658L100.334 27.9178ZM108.873 27.9178H104.985V13.8058H100.833V10.7818H113.025V13.8058H108.873V27.9178ZM128.812 21.8698C128.812 23.0538 128.556 24.1258 128.044 25.0858C127.548 26.0298 126.796 26.7818 125.788 27.3418C124.78 27.8858 123.516 28.1578 121.996 28.1578C119.82 28.1578 118.156 27.5818 117.004 26.4298C115.868 25.2618 115.3 23.7258 115.3 21.8218V10.7818H119.188V21.2698C119.188 22.6778 119.428 23.6698 119.908 24.2458C120.404 24.8218 121.124 25.1098 122.068 25.1098C122.74 25.1098 123.284 24.9738 123.7 24.7018C124.116 24.4298 124.42 24.0058 124.612 23.4298C124.82 22.8538 124.924 22.1258 124.924 21.2458V10.7818H128.812V21.8698Z" fill="white"/>
<path d="M23.1 0H31.5V4.11765H23.1V0ZM2.1 10.2941H10.5V14.4118H2.1V10.2941ZM2.1 26.7647H10.5V30.8824H2.1V26.7647ZM0 18.5294H8.379V22.6471H0V18.5294ZM41.3847 7.63206L38.4153 4.72088L34.8306 8.23529C32.5586 6.88915 29.9547 6.17723 27.3 6.17647C19.1961 6.17647 12.6 12.6432 12.6 20.5882C12.6 28.5332 19.1961 35 27.3 35C35.4039 35 42 28.5332 42 20.5882C41.9979 16.9772 40.6069 13.4997 38.1045 10.85L41.3847 7.63206ZM29.4 22.6471H25.2V12.2665H29.4V22.6471Z" fill="white"/>
</svg>
