<svg width="96" height="33" viewBox="0 0 96 33" fill="none" xmlns="http://www.w3.org/2000/svg">
<path d="M38.303 26V8.864H42.191V23H48.551V26H38.303ZM64.4215 19.952C64.4215 21.136 64.1655 22.208 63.6535 23.168C63.1575 24.112 62.4055 24.864 61.3975 25.424C60.3895 25.968 59.1255 26.24 57.6055 26.24C55.4295 26.24 53.7655 25.664 52.6135 24.512C51.4775 23.344 50.9095 21.808 50.9095 19.904V8.864H54.7975V19.352C54.7975 20.76 55.0375 21.752 55.5175 22.328C56.0135 22.904 56.7335 23.192 57.6775 23.192C58.3495 23.192 58.8935 23.056 59.3095 22.784C59.7255 22.512 60.0295 22.088 60.2215 21.512C60.4295 20.936 60.5335 20.208 60.5335 19.328V8.864H64.4215V19.952ZM77.7451 26L76.7611 21.92H71.2171L70.2091 26H65.9851L71.4571 8.792H76.4491L81.9451 26H77.7451ZM74.7931 14.888C74.6971 14.552 74.6011 14.2 74.5051 13.832C74.4091 13.464 74.3131 13.08 74.2171 12.68C74.1371 12.28 74.0571 11.872 73.9771 11.456C73.9131 11.872 73.8331 12.288 73.7371 12.704C73.6411 13.104 73.5451 13.488 73.4491 13.856C73.3691 14.224 73.2811 14.568 73.1851 14.888L72.0811 18.872H75.9211L74.7931 14.888ZM93.826 21.248C93.826 22.256 93.602 23.136 93.154 23.888C92.706 24.64 92.026 25.224 91.114 25.64C90.218 26.04 89.082 26.24 87.706 26.24C87.066 26.24 86.474 26.2 85.93 26.12C85.386 26.04 84.874 25.928 84.394 25.784C83.914 25.624 83.434 25.432 82.954 25.208V21.824C83.77 22.176 84.602 22.504 85.45 22.808C86.314 23.096 87.13 23.24 87.898 23.24C88.394 23.24 88.794 23.16 89.098 23C89.402 22.84 89.626 22.624 89.77 22.352C89.914 22.08 89.986 21.768 89.986 21.416C89.986 20.984 89.866 20.616 89.626 20.312C89.402 20.008 89.066 19.728 88.618 19.472C88.17 19.2 87.618 18.928 86.962 18.656C86.482 18.448 86.01 18.208 85.546 17.936C85.082 17.664 84.666 17.336 84.298 16.952C83.93 16.552 83.634 16.072 83.41 15.512C83.202 14.952 83.098 14.28 83.098 13.496C83.098 12.472 83.338 11.6 83.818 10.88C84.298 10.144 84.97 9.584 85.834 9.2C86.698 8.816 87.706 8.624 88.858 8.624C89.802 8.624 90.674 8.728 91.474 8.936C92.29 9.144 93.066 9.44 93.802 9.824L92.578 12.656C91.874 12.336 91.202 12.088 90.562 11.912C89.938 11.736 89.33 11.648 88.738 11.648C88.338 11.648 88.002 11.72 87.73 11.864C87.458 12.008 87.25 12.208 87.106 12.464C86.978 12.72 86.914 13.024 86.914 13.376C86.914 13.776 87.018 14.12 87.226 14.408C87.45 14.68 87.794 14.952 88.258 15.224C88.722 15.48 89.314 15.792 90.034 16.16C90.834 16.56 91.514 16.984 92.074 17.432C92.65 17.864 93.082 18.384 93.37 18.992C93.674 19.6 93.826 20.352 93.826 21.248Z" fill="white"/>
<path d="M6.84146 15.335L15.2526 6.92515L12.4951 4.1677L8.64019 8.02263C8.59422 8.06869 8.53961 8.10523 8.4795 8.13016C8.41939 8.15509 8.35496 8.16793 8.28988 8.16793C8.2248 8.16793 8.16037 8.15509 8.10026 8.13016C8.04015 8.10523 7.98554 8.06869 7.93957 8.02263L7.23896 7.32201C7.04521 7.12827 7.04521 6.81452 7.23896 6.6214L11.0939 2.76648L8.99143 0.663392C8.21707 -0.110968 6.96209 -0.110968 6.18772 0.663392L0.580933 6.27016C-0.192806 7.04452 -0.193431 8.29949 0.580933 9.07385L6.84146 15.335ZM31.1205 8.03512C32.293 6.86265 32.2923 4.96206 31.1205 3.78958L28.2924 0.961511C27.1199 -0.210966 25.2187 -0.210966 24.0456 0.961511L21.1694 3.83708L28.2443 10.9119L31.1205 8.03512ZM19.755 5.25205L1.1928 23.8117L0.0203159 30.5266C-0.137807 31.4322 0.650932 32.2209 1.55717 32.0615L8.27269 30.8841L26.8299 12.3263L19.755 5.25205ZM31.4192 23.0911L29.3168 20.9886L25.4618 24.8436C25.2681 25.0373 24.9543 25.0373 24.7612 24.8436L24.0606 24.1429C23.8675 23.9492 23.8675 23.6355 24.0606 23.4423L27.9155 19.5874L25.1568 16.8287L16.7457 25.2385L23.0087 31.5009C23.7831 32.2753 25.0381 32.2753 25.8124 31.5009L31.4192 25.8948C32.1936 25.1204 32.1936 23.8654 31.4192 23.0911Z" fill="white"/>
</svg>
