<svg width="96" height="34" viewBox="0 0 96 34" fill="none" xmlns="http://www.w3.org/2000/svg">
<path d="M51.815 18.264C51.815 20.184 51.463 21.792 50.759 23.088C50.071 24.384 49.079 25.36 47.783 26.016C46.503 26.672 44.967 27 43.175 27H38.303V9.864H43.607C45.319 9.864 46.783 10.184 47.999 10.824C49.231 11.464 50.175 12.408 50.831 13.656C51.487 14.888 51.815 16.424 51.815 18.264ZM47.783 18.36C47.783 17.096 47.631 16.056 47.327 15.24C47.023 14.424 46.567 13.824 45.959 13.44C45.367 13.04 44.623 12.84 43.727 12.84H42.191V24H43.391C44.895 24 45.999 23.528 46.703 22.584C47.423 21.64 47.783 20.232 47.783 18.36ZM64.3623 27L63.3783 22.92H57.8343L56.8263 27H52.6023L58.0743 9.792H63.0663L68.5623 27H64.3623ZM61.4103 15.888C61.3143 15.552 61.2183 15.2 61.1223 14.832C61.0263 14.464 60.9303 14.08 60.8343 13.68C60.7543 13.28 60.6743 12.872 60.5943 12.456C60.5303 12.872 60.4503 13.288 60.3543 13.704C60.2583 14.104 60.1623 14.488 60.0663 14.856C59.9863 15.224 59.8983 15.568 59.8023 15.888L58.6983 19.872H62.5383L61.4103 15.888ZM75.5135 27H71.6255V12.888H67.4735V9.864H79.6655V12.888H75.5135V27ZM90.331 27L89.347 22.92H83.803L82.795 27H78.571L84.043 9.792H89.035L94.531 27H90.331ZM87.379 15.888C87.283 15.552 87.187 15.2 87.091 14.832C86.995 14.464 86.899 14.08 86.803 13.68C86.723 13.28 86.643 12.872 86.563 12.456C86.499 12.872 86.419 13.288 86.323 13.704C86.227 14.104 86.131 14.488 86.035 14.856C85.955 15.224 85.867 15.568 85.771 15.888L84.667 19.872H88.507L87.379 15.888Z" fill="white"/>
<path d="M29.1147 12.0872H4.36475C3.8179 12.0867 3.29362 11.8692 2.90694 11.4825C2.52027 11.0958 2.30279 10.5715 2.30225 10.0247V5.8997C2.30279 5.35286 2.52027 4.82857 2.90694 4.4419C3.29362 4.05522 3.8179 3.83775 4.36475 3.8372H29.1147C29.6616 3.83775 30.1859 4.05522 30.5725 4.4419C30.9592 4.82857 31.1767 5.35286 31.1772 5.8997V10.0247C31.1767 10.5715 30.9592 11.0958 30.5725 11.4825C30.1859 11.8692 29.6616 12.0867 29.1147 12.0872ZM4.36475 5.8997V10.0247H29.1147V5.8997H4.36475ZM29.1147 32.7122H4.36475C3.8179 32.7117 3.29362 32.4942 2.90694 32.1075C2.52027 31.7208 2.30279 31.1965 2.30225 30.6497V26.5247C2.30279 25.9779 2.52027 25.4536 2.90694 25.0669C3.29362 24.6802 3.8179 24.4627 4.36475 24.4622H29.1147C29.6616 24.4627 30.1859 24.6802 30.5725 25.0669C30.9592 25.4536 31.1767 25.9779 31.1772 26.5247V30.6497C31.1767 31.1965 30.9592 31.7208 30.5725 32.1075C30.1859 32.4942 29.6616 32.7117 29.1147 32.7122ZM4.36475 26.5247V30.6497H29.1147V26.5247H4.36475ZM29.1147 22.3997H4.36475C3.8179 22.3992 3.29362 22.1817 2.90694 21.795C2.52027 21.4083 2.30279 20.884 2.30225 20.3372V16.2122C2.30279 15.6654 2.52027 15.1411 2.90694 14.7544C3.29362 14.3677 3.8179 14.1502 4.36475 14.1497H29.1147C29.6616 14.1502 30.1859 14.3677 30.5725 14.7544C30.9592 15.1411 31.1767 15.6654 31.1772 16.2122V20.3372C31.1767 20.884 30.9592 21.4083 30.5725 21.795C30.1859 22.1817 29.6616 22.3992 29.1147 22.3997ZM4.36475 16.2122V20.3372H29.1147V16.2122H4.36475Z" fill="white"/>
</svg>
