<svg width="177" height="47" viewBox="0 0 177 47" fill="none" xmlns="http://www.w3.org/2000/svg">
<path d="M62.6467 33.9178H58.2547L54.5587 26.6938L53.1907 27.7978V33.9178H49.3027V16.7818H53.1907V24.6298C53.3987 24.2938 53.6147 23.9578 53.8387 23.6218C54.0787 23.2858 54.3107 22.9498 54.5347 22.6138L58.3987 16.7818H62.6707L57.3427 24.3658L62.6467 33.9178ZM73.9451 33.9178H64.5371V16.7818H73.9451V19.7578H68.4251V23.5258H73.5611V26.5018H68.4251V30.9178H73.9451V33.9178ZM84.0367 19.5658C83.4607 19.5658 82.9407 19.7018 82.4767 19.9738C82.0287 20.2458 81.6447 20.6378 81.3247 21.1498C81.0047 21.6458 80.7647 22.2538 80.6047 22.9738C80.4447 23.6938 80.3647 24.5018 80.3647 25.3978C80.3647 26.6138 80.5007 27.6538 80.7727 28.5178C81.0447 29.3658 81.4607 30.0138 82.0207 30.4618C82.5807 30.9098 83.2927 31.1338 84.1567 31.1338C84.8447 31.1338 85.5167 31.0538 86.1727 30.8938C86.8447 30.7338 87.5407 30.5098 88.2607 30.2218V33.2698C87.5567 33.5738 86.8447 33.7978 86.1247 33.9418C85.4047 34.0858 84.6207 34.1578 83.7727 34.1578C82.0607 34.1578 80.6607 33.7978 79.5727 33.0778C78.4847 32.3418 77.6767 31.3178 77.1487 30.0058C76.6367 28.6778 76.3807 27.1338 76.3807 25.3738C76.3807 24.0778 76.5487 22.8938 76.8847 21.8218C77.2207 20.7338 77.7167 19.7978 78.3727 19.0138C79.0287 18.2298 79.8287 17.6218 80.7727 17.1898C81.7327 16.7578 82.8287 16.5418 84.0607 16.5418C84.8607 16.5418 85.7007 16.6538 86.5807 16.8778C87.4767 17.0858 88.2527 17.3738 88.9087 17.7418L87.6847 20.6938C87.0927 20.3898 86.4927 20.1258 85.8847 19.9018C85.2927 19.6778 84.6767 19.5658 84.0367 19.5658ZM100.945 33.9178H91.5371V16.7818H100.945V19.7578H95.4251V23.5258H100.561V26.5018H95.4251V30.9178H100.945V33.9178ZM109.405 16.7818C111.469 16.7818 112.989 17.2618 113.965 18.2218C114.957 19.1658 115.453 20.4698 115.453 22.1338C115.453 22.8858 115.349 23.6058 115.141 24.2938C114.933 24.9658 114.589 25.5738 114.109 26.1178C113.629 26.6458 112.989 27.0618 112.189 27.3658C111.405 27.6698 110.437 27.8218 109.285 27.8218H107.941V33.9178H104.053V16.7818H109.405ZM109.285 19.7578H107.941V24.8458H108.925C109.437 24.8458 109.893 24.7578 110.293 24.5818C110.693 24.4058 111.005 24.1258 111.229 23.7418C111.453 23.3578 111.565 22.8618 111.565 22.2538C111.565 21.4058 111.373 20.7818 110.989 20.3818C110.621 19.9658 110.053 19.7578 109.285 19.7578ZM127.018 33.9178L126.034 29.8378H120.49L119.482 33.9178H115.258L120.73 16.7098H125.722L131.218 33.9178H127.018ZM124.066 22.8058C123.97 22.4698 123.874 22.1178 123.778 21.7498C123.682 21.3818 123.586 20.9978 123.49 20.5978C123.41 20.1978 123.33 19.7898 123.25 19.3738C123.186 19.7898 123.106 20.2058 123.01 20.6218C122.914 21.0218 122.818 21.4058 122.722 21.7738C122.642 22.1418 122.554 22.4858 122.458 22.8058L121.354 26.7898H125.194L124.066 22.8058ZM138.169 33.9178H134.281V19.8058H130.129V16.7818H142.321V19.8058H138.169V33.9178ZM152.987 33.9178L152.003 29.8378H146.459L145.451 33.9178H141.227L146.699 16.7098H151.691L157.187 33.9178H152.987ZM150.035 22.8058C149.939 22.4698 149.843 22.1178 149.747 21.7498C149.651 21.3818 149.555 20.9978 149.459 20.5978C149.379 20.1978 149.299 19.7898 149.219 19.3738C149.155 19.7898 149.075 20.2058 148.979 20.6218C148.883 21.0218 148.787 21.4058 148.691 21.7738C148.611 22.1418 148.523 22.4858 148.427 22.8058L147.323 26.7898H151.163L150.035 22.8058ZM173.892 33.9178H168.876L162.42 20.9578H162.324C162.34 21.3578 162.356 21.7658 162.372 22.1818C162.388 22.5818 162.404 22.9898 162.42 23.4058C162.452 23.8058 162.476 24.2138 162.492 24.6298C162.508 25.0298 162.524 25.4378 162.54 25.8538V33.9178H159.084V16.7818H164.076L170.508 29.6218H170.58C170.58 29.2218 170.572 28.8298 170.556 28.4458C170.54 28.0458 170.516 27.6538 170.484 27.2698C170.468 26.8698 170.452 26.4778 170.436 26.0938C170.42 25.6938 170.412 25.2938 170.412 24.8938V16.7818H173.892V33.9178Z" fill="white"/>
<path d="M39.9109 16.7829L37.5021 20.4058C38.6638 22.7227 39.2325 25.2915 39.1573 27.8822C39.0821 30.4729 38.3654 33.0044 37.0713 35.25H9.9288C8.24692 32.3323 7.55001 28.9503 7.94137 25.6053C8.33273 22.2604 9.79154 19.1306 12.1015 16.68C14.4115 14.2293 17.4497 12.5883 20.7657 12.0001C24.0817 11.4119 27.499 11.9079 30.5109 13.4146L34.1338 11.0058C30.4453 8.64059 26.07 7.58072 21.708 7.99575C17.3459 8.41079 13.2491 10.2767 10.0727 13.2952C6.8964 16.3136 4.82414 20.31 4.18739 24.6453C3.55065 28.9805 4.38623 33.4041 6.56047 37.2083C6.90222 37.8003 7.39294 38.2925 7.98385 38.6361C8.57476 38.9796 9.24529 39.1625 9.9288 39.1667H37.0517C37.7419 39.1694 38.4205 38.9897 39.0189 38.6458C39.6173 38.3019 40.1141 37.806 40.4592 37.2083C42.2636 34.0827 43.1691 30.5192 43.0758 26.9113C42.9825 23.3035 41.894 19.7915 39.9305 16.7633L39.9109 16.7829ZM20.7388 30.1779C21.1026 30.5421 21.5345 30.831 22.01 31.0281C22.4855 31.2252 22.9951 31.3266 23.5098 31.3266C24.0246 31.3266 24.5342 31.2252 25.0097 31.0281C25.4852 30.831 25.9171 30.5421 26.2809 30.1779L37.3651 13.5517L20.7388 24.6358C20.3746 24.9996 20.0858 25.4315 19.8887 25.907C19.6916 26.3825 19.5901 26.8922 19.5901 27.4069C19.5901 27.9216 19.6916 28.4312 19.8887 28.9067C20.0858 29.3822 20.3746 29.8142 20.7388 30.1779Z" fill="white"/>
</svg>
