<svg width="118" height="33" viewBox="0 0 118 33" fill="none" xmlns="http://www.w3.org/2000/svg">
<path d="M32.9385 11.0527C31.8909 8.9873 28.8884 8.97969 27.8331 11.0527C22.6604 21.2656 22.8328 20.7734 22.8328 21.6875C22.8328 24.2732 26.2367 26.375 30.4432 26.375C34.6497 26.375 38 24.2727 38 21.6875C37.9447 20.7441 38.0815 21.1777 32.9385 11.0527ZM26.0536 20.75L30.332 12.3125L34.6229 20.75H26.0536ZM15.1672 21.6875C15.1672 20.743 15.249 21.1748 10.1064 11.0527C9.05875 8.9873 6.05624 8.97969 5.0009 11.0527C-0.171748 21.2656 0.00067352 20.7734 0.00067352 21.6875C0.00067352 24.2732 3.40451 26.375 7.55749 26.375C11.7105 26.375 15.1672 24.2715 15.1672 21.6875ZM7.55095 12.3125L11.8437 20.75H3.27371L7.55095 12.3125ZM29.3831 28.25H20.875V10.9824C22.2722 10.3789 23.3186 9.13672 23.6337 7.625H30.3879C31.4385 7.625 32.237 6.78535 32.237 5.75C32.237 4.71465 31.385 3.875 30.3879 3.875H22.7538C21.8845 2.73945 20.5242 2 18.9712 2C17.4182 2 16.0056 2.73945 15.191 3.875H7.5569C6.50453 3.875 5.65432 4.71465 5.65432 5.75C5.65432 6.78535 6.50453 7.625 7.50339 7.625H14.2576C14.5697 9.13379 15.6173 10.3789 17.0145 10.9795V28.25H8.50819C6.93202 28.25 5.65372 29.5092 5.65372 31.0625C5.65372 31.5802 6.07972 32 6.60501 32H31.3386C31.8639 32 32.2899 31.5802 32.2899 31.0625C32.2905 29.5098 31.0122 28.25 29.3831 28.25Z" fill="white"/>
<path d="M54.1536 8.864C55.6416 8.864 56.8656 9.008 57.8256 9.296C58.7856 9.568 59.4976 10.024 59.9616 10.664C60.4256 11.288 60.6576 12.136 60.6576 13.208C60.6576 13.848 60.5456 14.432 60.3216 14.96C60.0976 15.488 59.7936 15.92 59.4096 16.256C59.0416 16.592 58.6256 16.808 58.1616 16.904V17.024C58.6416 17.136 59.0976 17.336 59.5296 17.624C59.9776 17.912 60.3376 18.328 60.6096 18.872C60.8816 19.416 61.0176 20.136 61.0176 21.032C61.0176 22.072 60.7696 22.968 60.2736 23.72C59.7936 24.456 59.1056 25.024 58.2096 25.424C57.3136 25.808 56.2416 26 54.9936 26H48.8496V8.864H54.1536ZM54.3696 15.656C55.2336 15.656 55.8336 15.488 56.1696 15.152C56.5056 14.816 56.6736 14.328 56.6736 13.688C56.6736 13.032 56.4736 12.56 56.0736 12.272C55.6896 11.984 55.0816 11.84 54.2496 11.84H52.7376V15.656H54.3696ZM52.7376 18.536V23H54.6096C55.5056 23 56.1296 22.792 56.4816 22.376C56.8336 21.944 57.0096 21.376 57.0096 20.672C57.0096 20.24 56.9296 19.864 56.7696 19.544C56.6256 19.224 56.3696 18.976 56.0016 18.8C55.6496 18.624 55.1536 18.536 54.5136 18.536H52.7376ZM73.4451 26H64.0371V8.864H73.4451V11.84H67.9251V15.608H73.0611V18.584H67.9251V23H73.4451V26ZM81.5447 8.864C83.0007 8.864 84.2087 9.056 85.1687 9.44C86.1287 9.808 86.8407 10.376 87.3047 11.144C87.7847 11.896 88.0247 12.848 88.0247 14C88.0247 14.784 87.8967 15.472 87.6407 16.064C87.4007 16.64 87.0647 17.136 86.6327 17.552C86.2007 17.952 85.7127 18.28 85.1687 18.536L89.8727 26H85.5287L81.9047 19.424H80.4407V26H76.5527V8.864H81.5447ZM81.3767 11.84H80.4407V16.472H81.4007C81.9927 16.472 82.4887 16.384 82.8887 16.208C83.2887 16.032 83.5927 15.768 83.8007 15.416C84.0087 15.048 84.1127 14.608 84.1127 14.096C84.1127 13.552 84.0167 13.12 83.8247 12.8C83.6327 12.464 83.3367 12.224 82.9367 12.08C82.5367 11.92 82.0167 11.84 81.3767 11.84ZM101.487 26L100.503 21.92H94.9591L93.9511 26H89.7271L95.1991 8.792H100.191L105.687 26H101.487ZM98.5351 14.888C98.4391 14.552 98.3431 14.2 98.2471 13.832C98.1511 13.464 98.0551 13.08 97.9591 12.68C97.8791 12.28 97.7991 11.872 97.7191 11.456C97.6551 11.872 97.5751 12.288 97.4791 12.704C97.3831 13.104 97.2871 13.488 97.1911 13.856C97.1111 14.224 97.0231 14.568 96.9271 14.888L95.8231 18.872H99.6631L98.5351 14.888ZM112.638 26H108.75V11.888H104.598V8.864H116.79V11.888H112.638V26Z" fill="white"/>
</svg>
