<svg width="148" height="108" viewBox="0 0 148 108" fill="none" xmlns="http://www.w3.org/2000/svg">
<g filter="url(#filter0_d_26_195)">
<rect x="2" y="2" width="140" height="100" rx="10" fill="white"/>
</g>
<path d="M57.4075 91V81.004H58.9615V89.698H62.9375V91H57.4075ZM71.7855 87.472C71.7855 88.1627 71.6455 88.788 71.3655 89.348C71.0948 89.8987 70.6795 90.3373 70.1195 90.664C69.5595 90.9813 68.8595 91.14 68.0195 91.14C66.8155 91.14 65.8961 90.804 65.2615 90.132C64.6361 89.4507 64.3235 88.5547 64.3235 87.444V81.004H65.8775V87.374C65.8775 88.1953 66.0595 88.816 66.4235 89.236C66.7875 89.6467 67.3381 89.852 68.0755 89.852C68.5888 89.852 68.9995 89.7493 69.3075 89.544C69.6248 89.3387 69.8581 89.054 70.0075 88.69C70.1568 88.3167 70.2315 87.8733 70.2315 87.36V81.004H71.7855V87.472ZM79.8708 91L78.9328 88.116H75.3628L74.4248 91H72.8008L76.3148 80.962H77.9948L81.4948 91H79.8708ZM77.6028 83.986C77.5748 83.874 77.5281 83.72 77.4628 83.524C77.4068 83.3187 77.3508 83.1087 77.2948 82.894C77.2388 82.67 77.1874 82.4833 77.1408 82.334C77.1034 82.5393 77.0568 82.7447 77.0008 82.95C76.9448 83.1553 76.8934 83.3467 76.8468 83.524C76.8001 83.7013 76.7581 83.8553 76.7208 83.986L75.7968 86.8H78.5268L77.6028 83.986ZM88.2158 88.298C88.2158 88.8953 88.0804 89.404 87.8098 89.824C87.5391 90.244 87.1518 90.5707 86.6478 90.804C86.1438 91.028 85.5278 91.14 84.7998 91.14C84.4451 91.14 84.1044 91.1167 83.7778 91.07C83.4604 91.0327 83.1664 90.9767 82.8958 90.902C82.6344 90.8273 82.3871 90.734 82.1538 90.622V89.194C82.5271 89.362 82.9518 89.516 83.4278 89.656C83.9131 89.7867 84.3938 89.852 84.8698 89.852C85.2804 89.852 85.6164 89.7913 85.8778 89.67C86.1484 89.5487 86.3491 89.3807 86.4798 89.166C86.6198 88.9513 86.6898 88.6993 86.6898 88.41C86.6898 88.102 86.6198 87.8453 86.4798 87.64C86.3491 87.4253 86.1298 87.2293 85.8218 87.052C85.5231 86.8653 85.1218 86.674 84.6178 86.478C84.2631 86.3287 83.9411 86.17 83.6518 86.002C83.3624 85.8247 83.1104 85.6193 82.8958 85.386C82.6904 85.1527 82.5318 84.882 82.4198 84.574C82.3171 84.266 82.2658 83.9067 82.2658 83.496C82.2658 82.9453 82.3964 82.474 82.6578 82.082C82.9191 81.69 83.2831 81.3913 83.7498 81.186C84.2164 80.9713 84.7624 80.864 85.3878 80.864C85.9104 80.864 86.3911 80.92 86.8298 81.032C87.2684 81.1347 87.6838 81.2793 88.0758 81.466L87.5858 82.712C87.2218 82.5533 86.8531 82.4227 86.4798 82.32C86.1158 82.2173 85.7378 82.166 85.3458 82.166C85.0004 82.166 84.7111 82.222 84.4778 82.334C84.2538 82.446 84.0858 82.6 83.9738 82.796C83.8618 82.992 83.8058 83.2207 83.8058 83.482C83.8058 83.79 83.8711 84.0467 84.0018 84.252C84.1324 84.4573 84.3424 84.6487 84.6318 84.826C84.9211 84.994 85.3038 85.1807 85.7798 85.386C86.3024 85.61 86.7458 85.848 87.1098 86.1C87.4738 86.3427 87.7491 86.6413 87.9358 86.996C88.1224 87.3413 88.2158 87.7753 88.2158 88.298Z" fill="black"/>
<path d="M59.9796 41.0197L71.0193 29.9816L67.4001 26.3624L62.3404 31.4221C62.2801 31.4825 62.2084 31.5305 62.1295 31.5632C62.0506 31.5959 61.966 31.6128 61.8806 31.6128C61.7952 31.6128 61.7106 31.5959 61.6317 31.5632C61.5529 31.5305 61.4812 31.4825 61.4208 31.4221L60.5013 30.5025C60.247 30.2482 60.247 29.8364 60.5013 29.5829L65.561 24.5232L62.8014 21.7629C61.7851 20.7465 60.1379 20.7465 59.1215 21.7629L51.7625 29.1219C50.7469 30.1383 50.7461 31.7855 51.7625 32.8018L59.9796 41.0197ZM91.8462 31.4385C93.3851 29.8996 93.3843 27.405 91.8462 25.8661L88.1343 22.1542C86.5954 20.6153 84.1 20.6153 82.5603 22.1542L78.7852 25.9284L88.0712 35.2144L91.8462 31.4385ZM76.9289 27.7856L52.5656 52.1456L51.0267 60.9591C50.8191 62.1477 51.8544 63.1829 53.0438 62.9738L61.8581 61.4283L86.2148 37.0707L76.9289 27.7856ZM92.2383 51.1998L89.4788 48.4403L84.4191 53.5C84.1648 53.7543 83.753 53.7543 83.4996 53.5L82.58 52.5804C82.3265 52.3261 82.3265 51.9143 82.58 51.6608L87.6397 46.6011L84.0188 42.9803L72.979 54.0184L81.1994 62.2379C82.2158 63.2543 83.863 63.2543 84.8793 62.2379L92.2383 54.8797C93.2547 53.8634 93.2547 52.2162 92.2383 51.1998Z" fill="#FF0000"/>
<defs>
<filter id="filter0_d_26_195" x="0" y="0" width="148" height="108" filterUnits="userSpaceOnUse" color-interpolation-filters="sRGB">
<feFlood flood-opacity="0" result="BackgroundImageFix"/>
<feColorMatrix in="SourceAlpha" type="matrix" values="0 0 0 0 0 0 0 0 0 0 0 0 0 0 0 0 0 0 127 0" result="hardAlpha"/>
<feOffset dx="2" dy="2"/>
<feGaussianBlur stdDeviation="2"/>
<feComposite in2="hardAlpha" operator="out"/>
<feColorMatrix type="matrix" values="0 0 0 0 0 0 0 0 0 0 0 0 0 0 0 0 0 0 0.2 0"/>
<feBlend mode="normal" in2="BackgroundImageFix" result="effect1_dropShadow_26_195"/>
<feBlend mode="normal" in="SourceGraphic" in2="effect1_dropShadow_26_195" result="shape"/>
</filter>
</defs>
</svg>
