<svg width="148" height="108" viewBox="0 0 148 108" fill="none" xmlns="http://www.w3.org/2000/svg">
<g filter="url(#filter0_d_26_183)">
<rect x="2" y="2" width="140" height="100" rx="10" fill="white"/>
</g>
<path d="M45.9503 75.004C47.1729 75.004 48.0643 75.27 48.6243 75.802C49.1936 76.3247 49.4783 77.0573 49.4783 78C49.4783 78.42 49.4129 78.8213 49.2823 79.204C49.1609 79.5867 48.9556 79.932 48.6663 80.24C48.3863 80.5387 48.0083 80.7767 47.5323 80.954C47.0563 81.122 46.4729 81.206 45.7823 81.206H44.8023V85H43.2483V75.004H45.9503ZM45.8663 76.278H44.8023V79.932H45.6143C46.1183 79.932 46.5383 79.8713 46.8743 79.75C47.2103 79.6193 47.4623 79.4187 47.6303 79.148C47.8076 78.868 47.8963 78.504 47.8963 78.056C47.8963 77.4587 47.7329 77.0153 47.4063 76.726C47.0796 76.4273 46.5663 76.278 45.8663 76.278ZM56.5241 85L55.5861 82.116H52.0161L51.0781 85H49.4541L52.9681 74.962H54.6481L58.1481 85H56.5241ZM54.2561 77.986C54.2281 77.874 54.1814 77.72 54.1161 77.524C54.0601 77.3187 54.0041 77.1087 53.9481 76.894C53.8921 76.67 53.8408 76.4833 53.7941 76.334C53.7568 76.5393 53.7101 76.7447 53.6541 76.95C53.5981 77.1553 53.5468 77.3467 53.5001 77.524C53.4534 77.7013 53.4114 77.8553 53.3741 77.986L52.4501 80.8H55.1801L54.2561 77.986ZM67.2351 85H65.3311L60.7251 76.922H60.6691C60.6784 77.1087 60.6878 77.3093 60.6971 77.524C60.7158 77.7387 60.7298 77.9673 60.7391 78.21C60.7484 78.4433 60.7578 78.686 60.7671 78.938C60.7764 79.1807 60.7858 79.428 60.7951 79.68V85H59.3811V75.004H61.2711L65.8631 83.04H65.9191C65.9098 82.9 65.9004 82.7273 65.8911 82.522C65.8818 82.3073 65.8724 82.0787 65.8631 81.836C65.8538 81.5933 65.8444 81.346 65.8351 81.094C65.8258 80.842 65.8211 80.604 65.8211 80.38V75.004H67.2351V85ZM68.5277 87.744C68.2943 87.744 68.0937 87.7253 67.9257 87.688C67.7483 87.66 67.5897 87.618 67.4497 87.562V86.302C67.5897 86.3393 67.739 86.372 67.8977 86.4C68.0563 86.428 68.2243 86.442 68.4017 86.442C68.635 86.442 68.845 86.3953 69.0317 86.302C69.2277 86.2087 69.377 86.0407 69.4797 85.798C69.5917 85.5553 69.6477 85.2147 69.6477 84.776V75.004H71.2017V84.706C71.2017 85.406 71.0897 85.98 70.8657 86.428C70.6417 86.8853 70.329 87.2167 69.9277 87.422C69.5357 87.6367 69.069 87.744 68.5277 87.744ZM79.4382 85L78.5002 82.116H74.9302L73.9922 85H72.3682L75.8822 74.962H77.5622L81.0622 85H79.4382ZM77.1702 77.986C77.1422 77.874 77.0955 77.72 77.0302 77.524C76.9742 77.3187 76.9182 77.1087 76.8622 76.894C76.8062 76.67 76.7548 76.4833 76.7082 76.334C76.6708 76.5393 76.6242 76.7447 76.5682 76.95C76.5122 77.1553 76.4608 77.3467 76.4142 77.524C76.3675 77.7013 76.3255 77.8553 76.2882 77.986L75.3642 80.8H78.0942L77.1702 77.986ZM90.1491 85H88.2451L83.6391 76.922H83.5831C83.5925 77.1087 83.6018 77.3093 83.6111 77.524C83.6298 77.7387 83.6438 77.9673 83.6531 78.21C83.6625 78.4433 83.6718 78.686 83.6811 78.938C83.6905 79.1807 83.6998 79.428 83.7091 79.68V85H82.2951V75.004H84.1851L88.7771 83.04H88.8331C88.8238 82.9 88.8145 82.7273 88.8051 82.522C88.7958 82.3073 88.7865 82.0787 88.7771 81.836C88.7678 81.5933 88.7585 81.346 88.7491 81.094C88.7398 80.842 88.7351 80.604 88.7351 80.38V75.004H90.1491V85ZM96.5377 79.624H99.9957V84.608C99.4917 84.7853 98.9737 84.916 98.4417 85C97.9097 85.0933 97.3124 85.14 96.6497 85.14C95.6884 85.14 94.8717 84.9347 94.1997 84.524C93.5371 84.1133 93.0284 83.5253 92.6737 82.76C92.3284 81.9947 92.1557 81.0753 92.1557 80.002C92.1557 78.9567 92.3471 78.0513 92.7297 77.286C93.1124 76.5207 93.6677 75.928 94.3957 75.508C95.1237 75.0787 96.0057 74.864 97.0417 74.864C97.5737 74.864 98.0777 74.92 98.5537 75.032C99.0391 75.1347 99.4824 75.2793 99.8837 75.466L99.3377 76.726C99.0111 76.5673 98.6471 76.4367 98.2457 76.334C97.8537 76.222 97.4431 76.166 97.0137 76.166C96.3231 76.166 95.7351 76.3247 95.2497 76.642C94.7644 76.95 94.3957 77.3933 94.1437 77.972C93.8917 78.5413 93.7657 79.2227 93.7657 80.016C93.7657 80.7627 93.8731 81.4253 94.0877 82.004C94.3024 82.5827 94.6384 83.0353 95.0957 83.362C95.5531 83.6887 96.1457 83.852 96.8737 83.852C97.1164 83.852 97.3311 83.8427 97.5177 83.824C97.7044 83.796 97.8771 83.768 98.0357 83.74C98.2037 83.7027 98.3531 83.67 98.4837 83.642V80.926H96.5377V79.624Z" fill="black"/>
<path d="M45.3546 31.5966L51.9461 20.3061C52.6748 19.0562 54.2895 18.6313 55.5482 19.3479L61.2619 22.6059L56.3183 31.08C56.1361 31.3966 56.2438 31.7882 56.5584 31.9716L57.7012 32.6215C58.0158 32.8048 58.4216 32.6965 58.6038 32.3799L63.5474 23.9141L68.1184 26.5221L65.808 30.4717C65.6259 30.7883 65.7335 31.18 66.0482 31.3633L67.1909 32.0132C67.5056 32.1965 67.9113 32.0882 68.0935 31.7716L70.4038 27.8303L74.9748 30.4384L70.0229 38.9125C69.8408 39.2208 69.9484 39.6208 70.2631 39.8041L71.4058 40.454C71.7205 40.6373 72.1262 40.529 72.3084 40.2124L77.252 31.7383L81.823 34.3463L79.5127 38.2959C79.3305 38.6125 79.4381 39.0042 79.7528 39.1875L80.8956 39.8374C81.2102 40.0207 81.616 39.9124 81.7982 39.5958L84.1085 35.6378L88.6795 38.2459L83.7359 46.72C83.5537 47.0283 83.6613 47.4283 83.976 47.6116L85.1187 48.2615C85.4334 48.4449 85.8392 48.3365 86.0213 48.0199L90.965 39.5708L96.6787 42.8288C97.9373 43.5537 98.3762 45.1452 97.6475 46.3951L91.056 57.6939C90.3273 58.9438 88.7126 59.3687 87.4539 58.6521L66.8845 46.9075L46.3151 35.1629C45.0565 34.4463 44.6259 32.8465 45.3546 31.5966Z" fill="#FF0000"/>
<defs>
<filter id="filter0_d_26_183" x="0" y="0" width="148" height="108" filterUnits="userSpaceOnUse" color-interpolation-filters="sRGB">
<feFlood flood-opacity="0" result="BackgroundImageFix"/>
<feColorMatrix in="SourceAlpha" type="matrix" values="0 0 0 0 0 0 0 0 0 0 0 0 0 0 0 0 0 0 127 0" result="hardAlpha"/>
<feOffset dx="2" dy="2"/>
<feGaussianBlur stdDeviation="2"/>
<feComposite in2="hardAlpha" operator="out"/>
<feColorMatrix type="matrix" values="0 0 0 0 0 0 0 0 0 0 0 0 0 0 0 0 0 0 0.2 0"/>
<feBlend mode="normal" in2="BackgroundImageFix" result="effect1_dropShadow_26_183"/>
<feBlend mode="normal" in="SourceGraphic" in2="effect1_dropShadow_26_183" result="shape"/>
</filter>
</defs>
</svg>
