<svg width="375" height="812" viewBox="0 0 375 812" fill="none" xmlns="http://www.w3.org/2000/svg">
<g clip-path="url(#clip0_3_2)">
<rect width="375" height="812" fill="#FF0000"/>
<rect width="375" height="812" fill="#FF0000"/>
<g clip-path="url(#clip1_3_2)" filter="url(#filter0_b_3_2)">
<path d="M366.434 469.714L247.107 529.844L142.857 322.96C153.539 309.709 158.059 292.223 155.478 274.82L229.319 198.657C234.007 193.822 233.857 185.915 228.987 180.993L211.361 163.172C206.492 158.25 198.748 158.183 194.06 163.018L128.092 231.051C110.237 218.917 87.0874 216.183 66.9578 226.327C37.004 241.421 25.3876 278.801 41.0137 309.81C42.2268 312.218 43.7869 314.319 45.246 316.505L-26.5751 390.586C-31.2628 395.421 -31.1126 403.328 -26.2435 408.25L-8.6173 426.071C-3.7482 430.993 3.99634 431.06 8.68404 426.225L88.1466 344.262C91.8858 344.816 95.673 344.976 99.472 344.822L220.7 585.397C223.827 591.602 231.213 594.181 237.207 591.161L389.077 514.632C395.071 511.612 397.393 504.14 394.266 497.935L382.948 475.475C379.815 469.273 372.428 466.694 366.434 469.714ZM391.424 330.383C385.702 319.027 389.245 323.798 269.562 232.039C245.114 213.299 210.823 230.517 211.343 261.376C213.911 413.453 212.343 406.833 217.885 417.831L217.872 417.838C233.498 448.848 285.023 454.41 332.95 430.259C380.877 406.108 407.064 361.386 391.438 330.377L391.424 330.383ZM250.18 387.476L248.064 261.804L347.811 338.278L250.18 387.476ZM54.4856 453.074C30.0372 434.334 -4.25329 451.552 -3.73366 482.411C-1.16609 634.488 -2.73395 627.868 2.80841 638.866L2.79485 638.873C18.421 669.883 69.946 675.445 117.873 651.294C165.801 627.143 191.987 582.421 176.361 551.412L176.348 551.418C170.625 540.062 174.168 544.833 54.4856 453.074ZM35.1034 608.511L32.9873 482.839L132.734 559.313L35.1034 608.511Z" fill="white" fill-opacity="0.4"/>
</g>
<g filter="url(#filter1_d_3_2)">
<path d="M250.024 416.773L250.562 416.181V413.26L241.741 394.637H237.634L228.812 413.26V416.324L229.292 416.844C230.609 418.27 232.207 419.409 233.986 420.189C235.764 420.968 237.684 421.371 239.626 421.373H239.674C241.623 421.365 243.55 420.951 245.332 420.16C247.113 419.368 248.711 418.215 250.024 416.773ZM246.938 414.756C245.004 416.677 242.387 417.753 239.661 417.748H239.624C236.946 417.762 234.368 416.732 232.438 414.876V414.076L239.688 398.77L246.938 414.076V414.756ZM274.366 394.637H270.259L261.438 413.26V416.324L261.917 416.844C263.234 418.27 264.832 419.409 266.611 420.189C268.389 420.968 270.309 421.371 272.251 421.373H272.299C274.248 421.365 276.175 420.951 277.957 420.159C279.738 419.368 281.336 418.215 282.649 416.773L283.188 416.181V413.26L274.366 394.637ZM279.562 414.756C277.629 416.677 275.012 417.753 272.286 417.748H272.249C269.571 417.762 266.993 416.732 265.062 414.876V414.076L272.312 398.77L279.562 414.076V414.756Z" fill="white"/>
<path d="M257.812 395.278C258.821 394.975 259.738 394.426 260.483 393.682C261.227 392.937 261.775 392.02 262.079 391.012H274.125V387.387H262.079C261.688 386.078 260.886 384.929 259.791 384.113C258.696 383.296 257.366 382.855 256 382.855C254.634 382.855 253.304 383.296 252.209 384.113C251.114 384.929 250.312 386.078 249.921 387.387H237.875V391.012H249.921C250.225 392.02 250.773 392.937 251.517 393.682C252.262 394.426 253.179 394.975 254.188 395.278V425.449H242.406V429.074H269.594V425.449H257.812V395.278ZM253.281 389.199C253.281 388.661 253.441 388.136 253.739 387.689C254.038 387.242 254.463 386.893 254.96 386.687C255.456 386.482 256.003 386.428 256.53 386.533C257.058 386.638 257.542 386.897 257.922 387.277C258.303 387.657 258.562 388.141 258.667 388.669C258.771 389.196 258.718 389.743 258.512 390.24C258.306 390.736 257.958 391.161 257.51 391.46C257.063 391.759 256.538 391.918 256 391.918C255.279 391.918 254.587 391.632 254.078 391.122C253.568 390.612 253.281 389.92 253.281 389.199Z" fill="white"/>
</g>
<g filter="url(#filter2_d_3_2)">
<path d="M48.5547 425.492C45.2422 425.492 42.3594 424.805 39.9063 423.43C37.4531 422.039 35.5547 420.078 34.2109 417.547C32.8828 415 32.2188 411.992 32.2188 408.523L32.2188 407.375C32.2188 404.062 32.8594 401.133 34.1406 398.586C35.4375 396.023 37.2813 394.016 39.6719 392.562C42.0625 391.109 44.9063 390.383 48.2031 390.383C50.5156 390.383 52.6797 390.711 54.6953 391.367C56.7266 392.023 58.5391 393.023 60.1328 394.367L60.1328 402.617L55.0469 402.617L54.3438 397.437C53.8281 397.062 53.2656 396.742 52.6563 396.477C52.0469 396.211 51.3828 396.008 50.6641 395.867C49.9609 395.727 49.1953 395.656 48.3672 395.656C46.4297 395.656 44.7656 396.133 43.375 397.086C41.9844 398.039 40.9141 399.391 40.1641 401.141C39.4297 402.875 39.0625 404.937 39.0625 407.328L39.0625 408.523C39.0625 410.914 39.4531 412.984 40.2344 414.734C41.0156 416.484 42.125 417.844 43.5625 418.812C45 419.766 46.7031 420.242 48.6719 420.242C49.6563 420.242 50.6406 420.133 51.625 419.914C52.625 419.68 53.5313 419.383 54.3438 419.023L55.0469 414.219L60.1328 414.219L60.1328 422.375C58.8047 423.25 57.1484 423.992 55.1641 424.602C53.1797 425.195 50.9766 425.492 48.5547 425.492ZM78.9297 425.492C76.6328 425.492 74.5391 425.062 72.6484 424.203C70.7578 423.344 69.125 422.141 67.75 420.594C66.3906 419.031 65.3438 417.203 64.6094 415.109C63.875 413 63.5078 410.695 63.5078 408.195L63.5078 407.68C63.5078 405.195 63.875 402.906 64.6094 400.812C65.3438 398.703 66.3906 396.867 67.75 395.305C69.1094 393.742 70.7344 392.531 72.625 391.672C74.5156 390.812 76.6094 390.383 78.9063 390.383C81.2188 390.383 83.3281 390.812 85.2344 391.672C87.1406 392.531 88.7813 393.742 90.1563 395.305C91.5313 396.867 92.5859 398.703 93.3203 400.812C94.0703 402.906 94.4453 405.195 94.4453 407.68L94.4453 408.195C94.4453 410.695 94.0703 413 93.3203 415.109C92.5859 417.203 91.5313 419.031 90.1563 420.594C88.7813 422.141 87.1406 423.344 85.2344 424.203C83.3438 425.062 81.2422 425.492 78.9297 425.492ZM78.9297 420.172C80.8672 420.172 82.4766 419.672 83.7578 418.672C85.0391 417.672 86 416.273 86.6406 414.477C87.2969 412.68 87.625 410.586 87.625 408.195L87.625 407.633C87.625 405.273 87.2969 403.203 86.6406 401.422C85.9844 399.625 85.0078 398.227 83.7109 397.227C82.4297 396.227 80.8281 395.727 78.9063 395.727C77 395.727 75.4141 396.227 74.1484 397.227C72.8828 398.211 71.9297 399.594 71.2891 401.375C70.6641 403.156 70.3516 405.242 70.3516 407.633L70.3516 408.195C70.3516 410.586 70.6641 412.68 71.2891 414.477C71.9297 416.273 72.8828 417.672 74.1484 418.672C75.4297 419.672 77.0234 420.172 78.9297 420.172ZM97.1875 425L97.1875 420.898L100.82 420.195L100.82 395.703L97.1875 395L97.1875 390.875L100.82 390.875L107.758 390.875L122.617 414.547L122.758 414.523L122.758 395.703L118.398 395L118.398 390.875L128.875 390.875L132.531 390.875L132.531 395L128.875 395.703L128.875 425L122.266 425L107.078 401.562L106.938 401.586L106.938 420.195L111.32 420.898L111.32 425L97.1875 425ZM148.281 425L137.313 395.375L134.266 395L134.266 390.875L147.836 390.875L147.836 395L144.766 395.469L151.469 415.602L151.984 417.477L152.125 417.477L152.617 415.648L159.32 395.469L155.734 395L155.734 390.875L168.672 390.875L168.672 395L165.578 395.375L155.289 425L148.281 425ZM170.781 425L170.781 420.898L174.414 420.195L174.414 395.703L170.781 395L170.781 390.875L197.266 390.875L197.266 400.086L192.016 400.086L191.711 396.148L181.258 396.148L181.258 404.727L192.813 404.727L192.813 410L181.258 410L181.258 419.75L192.273 419.75L192.578 415.672L197.781 415.672L197.781 425L170.781 425ZM201.438 425L201.438 420.898L205.07 420.195L205.07 395.703L201.438 395L201.438 390.875L217.609 390.875C220.234 390.875 222.484 391.281 224.359 392.094C226.234 392.906 227.672 394.07 228.672 395.586C229.688 397.102 230.195 398.922 230.195 401.047C230.195 403.047 229.695 404.836 228.695 406.414C227.695 407.992 226.305 409.234 224.523 410.141C222.742 411.047 220.688 411.508 218.359 411.523L211.914 411.523L211.914 420.195L215.57 420.898L215.57 425L201.438 425ZM223.398 425L217.656 410.258L223.82 408.734L228.789 420.219L231.695 420.898L231.695 425L223.398 425ZM211.914 406.25L217.492 406.25C219.461 406.25 220.93 405.836 221.898 405.008C222.883 404.164 223.375 402.945 223.375 401.352C223.375 399.773 222.891 398.516 221.922 397.578C220.953 396.625 219.516 396.148 217.609 396.148L211.914 396.148L211.914 406.25ZM281.5 425L281.5 420.898L285.133 420.195L285.133 395.703L281.5 395L281.5 390.875L307.984 390.875L307.984 400.086L302.734 400.086L302.43 396.148L291.977 396.148L291.977 404.727L303.531 404.727L303.531 410L291.977 410L291.977 419.75L302.992 419.75L303.297 415.672L308.5 415.672L308.5 425L281.5 425ZM312.156 425L312.156 420.898L315.789 420.195L315.789 395.703L312.156 395L312.156 390.875L328.328 390.875C330.953 390.875 333.203 391.281 335.078 392.094C336.953 392.906 338.391 394.07 339.391 395.586C340.406 397.102 340.914 398.922 340.914 401.047C340.914 403.047 340.414 404.836 339.414 406.414C338.414 407.992 337.023 409.234 335.242 410.141C333.461 411.047 331.406 411.508 329.078 411.523L322.633 411.523L322.633 420.195L326.289 420.898L326.289 425L312.156 425ZM334.117 425L328.375 410.258L334.539 408.734L339.508 420.219L342.414 420.898L342.414 425L334.117 425ZM322.633 406.25L328.211 406.25C330.18 406.25 331.648 405.836 332.617 405.008C333.602 404.164 334.094 402.945 334.094 401.352C334.094 399.773 333.609 398.516 332.641 397.578C331.672 396.625 330.234 396.148 328.328 396.148L322.633 396.148L322.633 406.25Z" fill="white"/>
</g>
</g>
<defs>
<filter id="filter0_b_3_2" x="-154" y="113" width="623.006" height="586.025" filterUnits="userSpaceOnUse" color-interpolation-filters="sRGB">
<feFlood flood-opacity="0" result="BackgroundImageFix"/>
<feGaussianBlur in="BackgroundImage" stdDeviation="2"/>
<feComposite in2="SourceAlpha" operator="in" result="effect1_backgroundBlur_3_2"/>
<feBlend mode="normal" in="SourceGraphic" in2="effect1_backgroundBlur_3_2" result="shape"/>
</filter>
<filter id="filter1_d_3_2" x="227" y="373" width="66" height="66" filterUnits="userSpaceOnUse" color-interpolation-filters="sRGB">
<feFlood flood-opacity="0" result="BackgroundImageFix"/>
<feColorMatrix in="SourceAlpha" type="matrix" values="0 0 0 0 0 0 0 0 0 0 0 0 0 0 0 0 0 0 127 0" result="hardAlpha"/>
<feOffset dx="4" dy="4"/>
<feGaussianBlur stdDeviation="2"/>
<feComposite in2="hardAlpha" operator="out"/>
<feColorMatrix type="matrix" values="0 0 0 0 0 0 0 0 0 0 0 0 0 0 0 0 0 0 0.3 0"/>
<feBlend mode="normal" in2="BackgroundImageFix" result="effect1_dropShadow_3_2"/>
<feBlend mode="normal" in="SourceGraphic" in2="effect1_dropShadow_3_2" result="shape"/>
</filter>
<filter id="filter2_d_3_2" x="28.2188" y="389.383" width="318.195" height="43.1094" filterUnits="userSpaceOnUse" color-interpolation-filters="sRGB">
<feFlood flood-opacity="0" result="BackgroundImageFix"/>
<feColorMatrix in="SourceAlpha" type="matrix" values="0 0 0 0 0 0 0 0 0 0 0 0 0 0 0 0 0 0 127 0" result="hardAlpha"/>
<feOffset dy="3"/>
<feGaussianBlur stdDeviation="2"/>
<feComposite in2="hardAlpha" operator="out"/>
<feColorMatrix type="matrix" values="0 0 0 0 0 0 0 0 0 0 0 0 0 0 0 0 0 0 0.25 0"/>
<feBlend mode="normal" in2="BackgroundImageFix" result="effect1_dropShadow_3_2"/>
<feBlend mode="normal" in="SourceGraphic" in2="effect1_dropShadow_3_2" result="shape"/>
</filter>
<clipPath id="clip0_3_2">
<rect width="375" height="812" fill="white"/>
</clipPath>
<clipPath id="clip1_3_2">
<rect width="485.893" height="402.419" fill="white" transform="translate(-150 335.654) rotate(-26.7439)"/>
</clipPath>
</defs>
</svg>
