<svg width="148" height="108" viewBox="0 0 148 108" fill="none" xmlns="http://www.w3.org/2000/svg">
<g filter="url(#filter0_d_26_186)">
<rect x="2" y="2" width="140" height="100" rx="10" fill="white"/>
</g>
<path d="M34.953 91H33.413V82.306H30.641V81.004H37.711V82.306H34.953V91ZM44.4622 91H39.1282V81.004H44.4622V82.292H40.6822V85.148H44.2382V86.422H40.6822V89.698H44.4622V91ZM50.5446 91L47.8006 82.502H47.7446C47.7633 82.6887 47.7773 82.9407 47.7866 83.258C47.8053 83.5753 47.8193 83.916 47.8286 84.28C47.8473 84.644 47.8566 85.0033 47.8566 85.358V91H46.4426V81.004H48.6266L51.2586 89.026H51.3006L53.9746 81.004H56.1586V91H54.6746V85.274C54.6746 84.9473 54.6793 84.6113 54.6886 84.266C54.6979 83.9113 54.7119 83.58 54.7306 83.272C54.7493 82.964 54.7633 82.712 54.7726 82.516H54.7166L51.9026 91H50.5446ZM61.3126 81.004C62.5352 81.004 63.4266 81.27 63.9866 81.802C64.5559 82.3247 64.8406 83.0573 64.8406 84C64.8406 84.42 64.7752 84.8213 64.6446 85.204C64.5232 85.5867 64.3179 85.932 64.0286 86.24C63.7486 86.5387 63.3706 86.7767 62.8946 86.954C62.4186 87.122 61.8352 87.206 61.1446 87.206H60.1646V91H58.6106V81.004H61.3126ZM61.2286 82.278H60.1646V85.932H60.9766C61.4806 85.932 61.9006 85.8713 62.2366 85.75C62.5726 85.6193 62.8246 85.4187 62.9926 85.148C63.1699 84.868 63.2586 84.504 63.2586 84.056C63.2586 83.4587 63.0952 83.0153 62.7686 82.726C62.4419 82.4273 61.9286 82.278 61.2286 82.278ZM72.0247 91H66.6907V81.004H72.0247V82.292H68.2447V85.148H71.8007V86.422H68.2447V89.698H72.0247V91ZM76.7071 81.004C77.5098 81.004 78.1724 81.1113 78.6951 81.326C79.2178 81.5407 79.6051 81.8627 79.8571 82.292C80.1184 82.712 80.2491 83.244 80.2491 83.888C80.2491 84.4013 80.1604 84.8353 79.9831 85.19C79.8151 85.5353 79.5911 85.82 79.3111 86.044C79.0404 86.2587 78.7464 86.4313 78.4291 86.562L81.0751 91H79.3111L77.0851 86.954H75.5591V91H74.0051V81.004H76.7071ZM76.6371 82.292H75.5591V85.694H76.6651C77.1224 85.694 77.4958 85.6287 77.7851 85.498C78.0838 85.3673 78.3031 85.1713 78.4431 84.91C78.5924 84.6487 78.6671 84.3267 78.6671 83.944C78.6671 83.5427 78.5924 83.2253 78.4431 82.992C78.3031 82.7493 78.0791 82.572 77.7711 82.46C77.4724 82.348 77.0944 82.292 76.6371 82.292ZM88.2516 91L87.3136 88.116H83.7436L82.8056 91H81.1816L84.6956 80.962H86.3756L89.8756 91H88.2516ZM85.9836 83.986C85.9556 83.874 85.909 83.72 85.8436 83.524C85.7876 83.3187 85.7316 83.1087 85.6756 82.894C85.6196 82.67 85.5683 82.4833 85.5216 82.334C85.4843 82.5393 85.4376 82.7447 85.3816 82.95C85.3256 83.1553 85.2743 83.3467 85.2276 83.524C85.181 83.7013 85.139 83.8553 85.1016 83.986L84.1776 86.8H86.9076L85.9836 83.986ZM93.4549 91H91.9149V82.306H89.1429V81.004H96.2129V82.306H93.4549V91ZM105.008 87.472C105.008 88.1627 104.868 88.788 104.588 89.348C104.317 89.8987 103.902 90.3373 103.342 90.664C102.782 90.9813 102.082 91.14 101.242 91.14C100.038 91.14 99.1188 90.804 98.4841 90.132C97.8588 89.4507 97.5461 88.5547 97.5461 87.444V81.004H99.1001V87.374C99.1001 88.1953 99.2821 88.816 99.6461 89.236C100.01 89.6467 100.561 89.852 101.298 89.852C101.811 89.852 102.222 89.7493 102.53 89.544C102.847 89.3387 103.081 89.054 103.23 88.69C103.379 88.3167 103.454 87.8733 103.454 87.36V81.004H105.008V87.472ZM110.066 81.004C110.869 81.004 111.532 81.1113 112.054 81.326C112.577 81.5407 112.964 81.8627 113.216 82.292C113.478 82.712 113.608 83.244 113.608 83.888C113.608 84.4013 113.52 84.8353 113.342 85.19C113.174 85.5353 112.95 85.82 112.67 86.044C112.4 86.2587 112.106 86.4313 111.788 86.562L114.434 91H112.67L110.444 86.954H108.918V91H107.364V81.004H110.066ZM109.996 82.292H108.918V85.694H110.024C110.482 85.694 110.855 85.6287 111.144 85.498C111.443 85.3673 111.662 85.1713 111.802 84.91C111.952 84.6487 112.026 84.3267 112.026 83.944C112.026 83.5427 111.952 83.2253 111.802 82.992C111.662 82.7493 111.438 82.572 111.13 82.46C110.832 82.348 110.454 82.292 109.996 82.292Z" fill="black"/>
<path d="M90.6875 19C86.658 19 83.375 22.283 83.375 26.3125C83.375 30.342 86.658 33.625 90.6875 33.625C94.717 33.625 98 30.342 98 26.3125C98 22.283 94.717 19 90.6875 19ZM90.6875 28.75C89.3393 28.75 88.25 27.6607 88.25 26.3125C88.25 24.9643 89.3393 23.875 90.6875 23.875C92.0357 23.875 93.125 24.9643 93.125 26.3125C93.125 27.6607 92.0357 28.75 90.6875 28.75ZM78.5 27.5312C78.5 22.8162 74.6838 19 69.9688 19C65.2537 19 61.4375 22.8162 61.4375 27.5312V40.2139C59.9369 42.0953 59 44.4414 59 47.0312C59 53.0869 63.9131 58 69.9688 58C76.0244 58 80.9375 53.0869 80.9375 47.0312C80.9375 44.4414 80.0006 42.0877 78.5 40.2139V27.5312ZM69.9688 53.125C66.6096 53.125 63.875 50.3904 63.875 47.0312C63.875 45.0889 64.8043 43.3064 66.3125 42.1715V27.5312C66.3125 25.5127 67.9502 23.875 69.9688 23.875C71.9873 23.875 73.625 25.5127 73.625 27.5312V42.1715C75.1332 43.2988 76.0625 45.0889 76.0625 47.0312C76.0625 50.3904 73.3279 53.125 69.9688 53.125ZM71.1875 43.5959V42.1562C71.1875 41.4859 70.6391 40.9375 69.9688 40.9375C69.2984 40.9375 68.75 41.4859 68.75 42.1562V43.5959C67.3332 44.0986 66.3125 45.4393 66.3125 47.0312C66.3125 49.0498 67.9502 50.6875 69.9688 50.6875C71.9873 50.6875 73.625 49.0498 73.625 47.0312C73.625 45.4393 72.6043 44.0986 71.1875 43.5959Z" fill="#FF0000"/>
<defs>
<filter id="filter0_d_26_186" x="0" y="0" width="148" height="108" filterUnits="userSpaceOnUse" color-interpolation-filters="sRGB">
<feFlood flood-opacity="0" result="BackgroundImageFix"/>
<feColorMatrix in="SourceAlpha" type="matrix" values="0 0 0 0 0 0 0 0 0 0 0 0 0 0 0 0 0 0 127 0" result="hardAlpha"/>
<feOffset dx="2" dy="2"/>
<feGaussianBlur stdDeviation="2"/>
<feComposite in2="hardAlpha" operator="out"/>
<feColorMatrix type="matrix" values="0 0 0 0 0 0 0 0 0 0 0 0 0 0 0 0 0 0 0.2 0"/>
<feBlend mode="normal" in2="BackgroundImageFix" result="effect1_dropShadow_26_186"/>
<feBlend mode="normal" in="SourceGraphic" in2="effect1_dropShadow_26_186" result="shape"/>
</filter>
</defs>
</svg>
