<svg width="148" height="108" viewBox="0 0 148 108" fill="none" xmlns="http://www.w3.org/2000/svg">
<g filter="url(#filter0_d_26_189)">
<rect x="2" y="2" width="140" height="100" rx="10" fill="white"/>
</g>
<path d="M61.7507 81.004L59.3007 91H57.6207L56.0387 84.826C55.992 84.658 55.9453 84.4713 55.8987 84.266C55.852 84.0607 55.8053 83.86 55.7587 83.664C55.7213 83.4587 55.684 83.2767 55.6467 83.118C55.6187 82.9593 55.6 82.838 55.5907 82.754C55.5813 82.838 55.558 82.9593 55.5207 83.118C55.4927 83.2767 55.46 83.4587 55.4227 83.664C55.3853 83.86 55.3433 84.0653 55.2967 84.28C55.25 84.4853 55.2033 84.6813 55.1567 84.868L53.6027 91H51.9227L49.4727 81.004H51.0407L52.3847 86.912C52.4313 87.1173 52.478 87.3273 52.5247 87.542C52.5713 87.7567 52.6133 87.9713 52.6507 88.186C52.688 88.4007 52.7207 88.6107 52.7487 88.816C52.786 89.012 52.814 89.194 52.8327 89.362C52.8607 89.1847 52.8887 88.9933 52.9167 88.788C52.954 88.5827 52.9913 88.3727 53.0287 88.158C53.0753 87.934 53.122 87.7147 53.1687 87.5C53.2247 87.2853 53.276 87.0847 53.3227 86.898L54.8207 81.004H56.3467L57.9007 86.94C57.9473 87.1267 57.994 87.3273 58.0407 87.542C58.0873 87.7567 58.134 87.976 58.1807 88.2C58.2273 88.4147 58.2647 88.6247 58.2927 88.83C58.33 89.026 58.3627 89.2033 58.3907 89.362C58.4187 89.1287 58.456 88.8767 58.5027 88.606C58.5587 88.326 58.6147 88.0413 58.6707 87.752C58.736 87.4533 58.7967 87.1733 58.8527 86.912L60.1827 81.004H61.7507ZM68.4343 91L67.4963 88.116H63.9263L62.9883 91H61.3643L64.8783 80.962H66.5583L70.0583 91H68.4343ZM66.1663 83.986C66.1383 83.874 66.0916 83.72 66.0263 83.524C65.9703 83.3187 65.9143 83.1087 65.8583 82.894C65.8023 82.67 65.7509 82.4833 65.7043 82.334C65.6669 82.5393 65.6203 82.7447 65.5643 82.95C65.5083 83.1553 65.4569 83.3467 65.4103 83.524C65.3636 83.7013 65.3216 83.8553 65.2843 83.986L64.3603 86.8H67.0903L66.1663 83.986ZM78.4732 91H76.6812L73.7552 86.394L72.8452 87.206V91H71.2912V81.004H72.8452V85.834C73.0599 85.5447 73.2792 85.26 73.5032 84.98C73.7272 84.7 73.9512 84.42 74.1752 84.14L76.6252 81.004H78.3892L74.8612 85.372L78.4732 91ZM82.9618 91H81.4218V82.306H78.6498V81.004H85.7198V82.306H82.9618V91ZM94.5149 87.472C94.5149 88.1627 94.3749 88.788 94.0949 89.348C93.8243 89.8987 93.4089 90.3373 92.8489 90.664C92.2889 90.9813 91.5889 91.14 90.7489 91.14C89.5449 91.14 88.6256 90.804 87.9909 90.132C87.3656 89.4507 87.0529 88.5547 87.0529 87.444V81.004H88.6069V87.374C88.6069 88.1953 88.7889 88.816 89.1529 89.236C89.5169 89.6467 90.0676 89.852 90.8049 89.852C91.3183 89.852 91.7289 89.7493 92.0369 89.544C92.3543 89.3387 92.5876 89.054 92.7369 88.69C92.8863 88.3167 92.9609 87.8733 92.9609 87.36V81.004H94.5149V87.472Z" fill="black"/>
<path d="M73.4167 20.25H83.0833V25.0833H73.4167V20.25ZM49.25 32.3333H58.9167V37.1667H49.25V32.3333ZM49.25 51.6667H58.9167V56.5H49.25V51.6667ZM46.8333 42H56.4758V46.8333H46.8333V42ZM94.4586 29.2086L91.0414 25.7914L86.9162 29.9167C84.3016 28.3365 81.305 27.5009 78.25 27.5C68.9241 27.5 61.3333 35.0907 61.3333 44.4167C61.3333 53.7426 68.9241 61.3333 78.25 61.3333C87.5759 61.3333 95.1667 53.7426 95.1667 44.4167C95.1643 40.178 93.5635 36.0961 90.6838 32.9858L94.4586 29.2086ZM80.6667 46.8333H75.8333V34.6485H80.6667V46.8333Z" fill="#FF0000"/>
<defs>
<filter id="filter0_d_26_189" x="0" y="0" width="148" height="108" filterUnits="userSpaceOnUse" color-interpolation-filters="sRGB">
<feFlood flood-opacity="0" result="BackgroundImageFix"/>
<feColorMatrix in="SourceAlpha" type="matrix" values="0 0 0 0 0 0 0 0 0 0 0 0 0 0 0 0 0 0 127 0" result="hardAlpha"/>
<feOffset dx="2" dy="2"/>
<feGaussianBlur stdDeviation="2"/>
<feComposite in2="hardAlpha" operator="out"/>
<feColorMatrix type="matrix" values="0 0 0 0 0 0 0 0 0 0 0 0 0 0 0 0 0 0 0.2 0"/>
<feBlend mode="normal" in2="BackgroundImageFix" result="effect1_dropShadow_26_189"/>
<feBlend mode="normal" in="SourceGraphic" in2="effect1_dropShadow_26_189" result="shape"/>
</filter>
</defs>
</svg>
